<svg width="229" height="229" xmlns="http://www.w3.org/2000/svg">

 <title width="0" height="0"/>
 <g id="imagebot_1" width="0" height="0">
  <g transform="translate(-0, 0.0078125)" id="imagebot_2" width="0" height="0">
   <path stroke="#000000" stroke-width="3" id="imagebot_3" fill="rgb(255, 255, 255)" d="M 226.13 62.73 L 208.21 54.73 Q 207.29 52.18 206.12 49.73 L 213.12 31.4 A 4.73 4.73 0 0 0 212.04 26.35 L 202.59 16.9 A 4.73 4.73 0 0 0 197.54 15.82 L 179.21 22.82 C 177.56 22.04 175.87 21.34 174.21 20.72 L 166.21 2.8 A 4.76 4.76 0 0 0 161.88 0 L 148.52 0 A 4.76 4.76 0 0 0 144.18 2.81 L 136.18 20.74 C 134.48 21.35 132.79 22.05 131.18 22.83 L 112.85 15.83 A 4.75 4.75 0 0 0 107.79 16.91 L 98.35 26.35 A 4.75 4.75 0 0 0 97.27 31.41 L 104.27 49.74 C 103.49 51.39 102.79 53.08 102.18 54.74 L 84.26 62.74 A 4.75 4.75 0 0 0 81.44 67.08 L 81.44 80.43 A 4.73 4.73 0 0 0 84.26 84.76 L 102.17 92.76 C 102.79 94.46 103.49 96.15 104.27 97.76 L 97.27 116.09 A 4.73 4.73 0 0 0 98.35 121.09 L 107.79 130.54 A 4.75 4.75 0 0 0 112.85 131.61 L 131.18 124.61 C 132.83 125.39 134.52 126.09 136.18 126.7 L 144.18 144.62 A 4.76 4.76 0 0 0 148.52 147.44 L 161.88 147.44 A 4.75 4.75 0 0 0 166.21 144.62 L 174.21 126.7 Q 176.76 125.78 179.21 124.61 L 197.54 131.61 A 4.73 4.73 0 0 0 202.59 130.53 L 212.04 121.08 A 4.73 4.73 0 0 0 213.11 116.08 L 206.11 97.75 Q 207.28 95.26 208.2 92.75 L 226.12 84.75 A 4.77 4.77 0 0 0 229 80.43 L 229 67.07 A 4.76 4.76 0 0 0 226.13 62.73 z M 219.46 77.35 L 202.46 84.93 A 4.7 4.7 0 0 0 199.87 87.84 A 47.34 47.34 0 0 1 196.74 95.35 A 4.72 4.72 0 0 0 196.52 99.24 L 203.19 116.64 L 198.1 121.73 L 180.7 115.06 A 4.72 4.72 0 0 0 176.81 115.28 A 47.45 47.45 0 0 1 169.29 118.41 A 4.74 4.74 0 0 0 166.39 121 L 158.81 138 L 151.61 138 L 144 121 A 4.73 4.73 0 0 0 141.09 118.41 A 47.34 47.34 0 0 1 133.58 115.28 A 4.72 4.72 0 0 0 129.69 115.06 L 112.29 121.73 L 107.2 116.64 L 113.87 99.24 A 4.72 4.72 0 0 0 113.64 95.35 A 47 47 0 0 1 110.52 87.83 A 4.73 4.73 0 0 0 107.92 84.93 L 90.92 77.35 L 90.92 70.15 L 107.92 62.57 A 4.73 4.73 0 0 0 110.51 59.66 A 47 47 0 0 1 113.64 52.15 A 4.8 4.8 0 0 0 113.86 48.26 L 107.19 30.86 L 112.28 25.76 L 129.68 32.44 A 4.76 4.76 0 0 0 133.57 32.21 A 46.75 46.75 0 0 1 141.08 29.09 A 4.73 4.73 0 0 0 144 26.5 L 151.58 9.5 L 158.78 9.5 L 166.36 26.5 A 4.73 4.73 0 0 0 169.27 29.09 A 46.91 46.91 0 0 1 176.78 32.21 A 4.76 4.76 0 0 0 180.67 32.44 L 198.07 25.77 L 203.16 30.86 L 196.49 48.26 A 4.72 4.72 0 0 0 196.71 52.15 A 45.35 45.35 0 0 1 199.83 59.66 A 4.75 4.75 0 0 0 202.43 62.57 L 219.43 70.15 L 219.46 77.35 z" width="0" height="0"/>
   <path stroke="#000000" stroke-width="3" id="imagebot_4" fill="rgb(255, 255, 255)" d="M155.2,45.73A28,28 0 1 0 183.2,73.73A28.06,28.06 0 0 0 155.2,45.73zM155.2,92.28A18.54,18.54 0 1 1 173.73,73.75A18.56,18.56 0 0 1 155.2,92.28z" width="0" height="0"/>
   <path stroke="#000000" stroke-width="3" id="imagebot_5" fill="rgb(255, 255, 255)" d="M 42.2 95.17 A 4.74 4.74 0 0 0 39.27 99.55 L 39.27 184.93 A 4.75 4.75 0 0 0 44 189.67 L 129.37 189.67 A 4.75 4.75 0 0 0 132.73 181.57 L 47.37 96.2 A 4.75 4.75 0 0 0 42.2 95.17 z M 48.76 111 L 117.94 180.17 L 48.76 180.17 L 48.76 111 z" width="0" height="0"/>
   <path stroke="#000000" stroke-width="3" id="imagebot_6" fill="rgb(255, 255, 255)" d="M 169.83 163.12 A 4.74 4.74 0 0 0 163.12 169.83 L 212.75 219.46 L 166.41 219.46 L 166.41 215 A 4.75 4.75 0 0 0 156.92 215 L 156.92 219.42 L 127.19 219.42 L 127.19 215 A 4.75 4.75 0 0 0 117.7 215 L 117.7 219.42 L 88 219.42 L 88 215 A 4.75 4.75 0 0 0 78.51 215 L 78.51 219.42 L 48.76 219.42 L 48.76 215 A 4.75 4.75 0 0 0 39.27 215 L 39.27 219.42 L 9.49 219.42 L 9.49 16.2 L 59.12 65.83 A 4.74 4.74 0 0 0 65.83 59.12 L 8.1 1.3900000000000001 A 4.74 4.74 0 0 0 0 4.75 L 0 224.2 A 4.75 4.75 0 0 0 4.74 229 L 224.2 229 A 4.75 4.75 0 0 0 227.56 220.9 L 169.83 163.12 z" width="0" height="0"/>
  </g>
  <title width="0" height="0">imagebot_1</title>
 </g>
</svg>