<svg width="60" height="60" xmlns="http://www.w3.org/2000/svg">

 <g width="0" height="0">
  <title width="0" height="0">Layer 1</title>
  <g id="imagebot_4" width="0" height="0">
   <g transform="translate(0 -1)" id="imagebot_1" width="0" height="0">
    <path stroke="#000000" stroke-width="0.5" fill="#ffffff" class="active-path" d="M 57.708 37.32 C 57.14942 37.16348 56.55858 37.16348 56 37.32 L 56 31.055 C 57.23389 30.3412 57.99553 29.02548 58 27.6 L 58 16 C 58 14.34315 56.65685 13 55 13 L 51 13 L 51 11 C 51 9.89543 50.10457 9 49 9 L 45.935 9 C 45.929 8.942 45.935 8.886 45.926 8.828 C 45.3341 4.31555 41.4667 0.95511 36.91581 0.99892 C 32.36491 1.04272 28.56292 4.47699 28.058 9 L 25 9 C 23.89543 9 23 9.89543 23 11 L 23 13 L 19 13 C 17.34315 13 16 14.34315 16 16 L 16 27.6 C 16.00447 29.02548 16.76611 30.3412 18 31.055 L 18 37.112 C 17.32354 37.20481 16.65818 37.36563 16.014 37.592 L 11.927 39.356 C 11.62485 37.98126 10.40755 37.00144 9 37 L 3 37 C 1.34315 37 0 38.34315 0 40 L 0 54 C 0 55.65685 1.34315 57 3 57 L 9 57 C 10.57699 56.99328 11.87956 55.76674 11.981 54.193 C 12.18394 54.18711 12.38651 54.21378 12.581 54.272 L 32.95 60.788 C 34.50581 61.25251 36.19019 60.93664 37.472 59.94 L 58.8 42.844 C 59.55539 42.24033 59.99663 41.32696 60 40.36 C 59.99679 39.82203 59.8593 39.29337 59.6 38.822 C 59.19374 38.09001 58.51306 37.54964 57.708 37.32 z M 34 34.48 L 34 35 C 34 36.10457 34.89543 37 36 37 L 38 37 C 39.10457 37 40 36.10457 40 35 L 40 34.48 L 54 31.68 L 54 38.335 L 44.833 43.516 C 44.68815 42.09609 43.60641 40.95115 42.197 40.726 L 40.487 40.436 L 40.415 40.427 L 21.015 37.114 C 20.677599999999998 37.06325 20.33782 37.02987 19.997 37.014 L 19.997 31.678 L 34 34.48 z M 36 35 L 36 33 L 38 33 L 38 35 z M 49 13 L 45.473 13 C 45.70027 12.35293 45.85227 11.68185 45.926 11 L 49 11 z M 32.338 4.777 C 34.3035 3.01736 37.09136 2.51219 39.54933 3.47028 C 42.00729 4.42837 43.71785 6.68699 43.97401 9.31261 C 44.23018 11.93824 42.98843 14.48489 40.762 15.9 C 39.71206 16.59041 39.0591 17.74444 39.008 19 L 34.994 19 C 34.94075 17.73892 34.28048 16.58159 33.222 15.894 C 31.37862 14.71289 30.194 12.73735 30.02046 10.55493 C 29.84692 8.37251 30.704439999999998 6.23459 32.338 4.777 z M 36 25 L 38 25 L 38 26 C 38 26.55228 37.55228 27 37 27 S 36 26.55228 36 26 z M 39 23 L 34 23 C 33.44772 23 33 22.55228 33 22 S 33.44772 21 34 21 L 40 21 C 40.55228 21 41 21.44772 41 22 S 40.55228 23 40 23 z M 25 11 L 28.063 11 C 28.13988 11.68226 28.29524 12.35336 28.526 13 L 25 13 z M 18 16 C 18 15.44772 18.44772 15 19 15 L 29.529 15 C 30.21368 16.02846 31.10239 16.90526 32.14 17.576 C 32.67576 17.93653 32.9979 18.53923 33 19.185 C 31.62499 19.67087 30.80031 21.07702 31.04747 22.51426 C 31.29463 23.95149 32.54167 25.00138 34 25 L 34 26 C 34 27.65685 35.34315 29 37 29 S 40 27.65685 40 26 L 40 25 C 41.45765 25.00253 42.70514 23.95459 42.95418 22.51837 C 43.20323 21.082160000000002 42.3814 19.67539 41.008 19.187 C 41.00758 18.54984 41.31816 17.95258 41.84 17.587 C 42.89028 16.91654 43.79021 16.03569 44.483 15 L 55 15 C 55.55228 15 56 15.44772 56 16 L 56 27.6 C 55.99729 28.55155 55.32644 29.37026 54.394 29.56 L 39.916 32.46 C 39.6749 31.60016 38.89299 31.00434 38 31 L 36 31 C 35.10785 31.00396 34.32621 31.59835 34.084 32.457 L 19.621 29.563 L 19.565 29.547 C 18.65234 29.34363 18.00239 28.53504 18 27.6 z M 10 54 C 10 54.55228 9.55228 55 9 55 L 3 55 C 2.44772 55 2 54.55228 2 54 L 2 40 C 2 39.44772 2.44772 39 3 39 L 9 39 C 9.55228 39 10 39.44772 10 40 L 10 40.784 C 10 40.807 9.99 40.828 9.99 40.851 L 10 53.371 z M 57.554 41.279 L 36.236 58.37 C 35.47174 58.95967 34.47164 59.14847 33.545 58.878 L 13.188 52.366 C 12.812100000000001 52.24907 12.42066 52.18973 12.027 52.19 L 12 52.19 L 12 41.5 L 16.748 39.448 C 18.01106 38.99669 19.36746 38.87082 20.692 39.082 L 40.132 42.402 C 40.153 42.402 40.18 42.409 40.206 42.412 L 41.869 42.694 C 42.42995 42.78662 42.84353 43.26849 42.85 43.837 C 42.85296 44.14129 42.73456 44.43422 42.521 44.651 C 42.30072 44.87216 42.00213 44.99755 41.69 45 L 23.85 45 C 23.29772 45 22.85 45.44772 22.85 46 S 23.29772 47 23.85 47 L 27.564 47 L 33.384 50.614 C 34.2951 51.12854 35.40846 51.13119 36.322 50.621 L 56.277 39.343 C 56.83543 39.03364 57.53884 39.23226 57.853 39.788 C 57.94857 39.96357 57.99908 40.16011 58 40.36 C 57.99894 40.71824 57.83478 41.05651 57.554 41.279 z M 38.664 47 L 35.344 48.876 C 35.05086 49.03965 34.69517 49.04528 34.397 48.891 L 31.354 47 z" id="imagebot_3" width="0" height="0"/>
    <path stroke="#000000" stroke-width="0.5" fill="#ffffff" class="active-path" d="M7,41L5,41C4.44772,41 4,41.44772 4,42S4.44772,43 5,43L7,43C7.55228,43 8,42.55228 8,42S7.55228,41 7,41z" id="imagebot_2" width="0" height="0"/>
    <path stroke="#000000" stroke-width="0.5" fill="#ffffff" class="active-path" d="M7,51L5,51C4.44772,51 4,51.44772 4,52S4.44772,53 5,53L7,53C7.55228,53 8,52.55228 8,52S7.55228,51 7,51z" id="Path" width="0" height="0"/>
    <path stroke="#000000" stroke-width="0.5" fill="#ffffff" class="active-path" d="M33,11C33.55228,11 34,10.55228 34,10C34,8.34315 35.34315,7 37,7C37.55228,7 38,6.55228 38,6S37.55228,5 37,5C34.23995,5.00331 32.00331,7.23995 32,10C32,10.55228 32.44772,11 33,11z" id="Path" width="0" height="0"/>
   </g>
  </g>
 </g>
</svg>