<svg width="225" height="235" xmlns="http://www.w3.org/2000/svg">

 <title width="0" height="0"/>
 <g id="imagebot_1" width="0" height="0">
  <g transform="translate(-1, 1) translate(-0, 0.21875)" id="imagebot_2" width="0" height="0">
   <path stroke-width="3" stroke="#000000" id="imagebot_3" fill="rgb(255, 255, 255)" d="M 220 10.09 L 189.6 10.09 L 189.6 4.75 A 4.75 4.75 0 1 0 180.11 4.75 L 180.11 10.09 L 152.28 10.09 L 152.28 4.75 A 4.75 4.75 0 1 0 142.79 4.75 L 142.79 10.09 L 25.85 10.09 A 4.75 4.75 0 0 0 21.11 14.84 L 21.11 107.76 L 1.65 124.47 A 4.73 4.73 0 0 0 0 128.07 L 0 212 A 4.72 4.72 0 0 0 1.65 215.59 L 22.76 233.72 A 4.75 4.75 0 0 0 25.85 234.87 L 220 234.87 A 4.75 4.75 0 0 0 224.74 230.12 L 224.74 14.84 A 4.75 4.75 0 0 0 220 10.09 z M 215.25 183.78 L 164.35 183.78 L 164.35 153.13 L 215.25 153.13 L 215.25 183.78 z M 9.49 209.83 L 9.49 130.25 L 27.61 114.68 L 147.53 114.68 A 4.75 4.75 0 1 0 147.53 105.19 L 119.1 105.19 L 119.1 81.07 A 4.75 4.75 0 1 0 109.61 81.07 L 109.61 105.19 L 30.61 105.19 L 30.61 19.58 L 109.61 19.58 L 109.61 43.71 A 4.75 4.75 0 0 0 119.1 43.71 L 119.1 19.58 L 142.79 19.58 L 142.79 24.93 A 4.75 4.75 0 1 0 152.28 24.93 L 152.28 19.58 L 180.15 19.58 L 180.15 24.93 A 4.75 4.75 0 1 0 189.64 24.93 L 189.64 19.58 L 215.29 19.58 L 215.29 105.19 L 184.9 105.19 A 4.75 4.75 0 1 0 184.9 114.68 L 215.29 114.68 L 215.29 143.68 L 159.65 143.68 A 4.75 4.75 0 0 0 154.9 148.43 L 154.9 225.43 L 91.44 225.43 L 91.44 147.3 A 4.75 4.75 0 0 0 81.95 147.3 L 81.95 225.39 L 27.61 225.39 z M 164.39 225.39 L 164.39 193.27 L 215.29 193.27 L 215.29 225.39 z" width="0" height="0"/>
  </g>
  <title width="0" height="0">imagebot_1</title>
 </g>
</svg>