<svg xmlns="http://www.w3.org/2000/svg" viewBox="0 0 234.88 246.74"><defs><style>.cls-1{fill:#fff;}</style></defs><title>Ресурс 6</title><g id="Слой_2" data-name="Слой 2"><g id="Layer_2" data-name="Layer 2"><path class="cls-1" d="M52.11,108.41h2.23L37,161.44a4.76,4.76,0,0,0,3,6,4.76,4.76,0,0,0,6-3l18.27-56h41.81l18.27,56a4.75,4.75,0,1,0,9-2.95l-17.31-53h2.23a4.75,4.75,0,0,0,0-9.49H113L100.7,61.18A23.9,23.9,0,0,0,90,19.51V4.74a4.75,4.75,0,0,0-9.49,0V19.51A23.9,23.9,0,0,0,69.75,61.18L57.43,98.92H52.11a4.75,4.75,0,0,0,0,9.49ZM85.22,28.52A14.44,14.44,0,1,1,70.79,43,14.45,14.45,0,0,1,85.22,28.52Zm-7,37.31a23.68,23.68,0,0,0,14,0L103,98.92H67.42Z"/><path class="cls-1" d="M210.06,35H128a4.75,4.75,0,1,0,0,9.49h82.05a15.35,15.35,0,0,1,15.33,15.33V221.92a15.35,15.35,0,0,1-15.33,15.33H24.82A15.35,15.35,0,0,1,9.49,221.92V59.83A15.35,15.35,0,0,1,24.82,44.5H42.44a4.75,4.75,0,0,0,0-9.49H24.82A24.84,24.84,0,0,0,0,59.83V221.92a24.84,24.84,0,0,0,24.82,24.82H210.06a24.85,24.85,0,0,0,24.82-24.82V59.83A24.85,24.85,0,0,0,210.06,35Z"/><path class="cls-1" d="M122.18,194.1a4.75,4.75,0,1,0-9.49,0v6.36H84.24V194.1a4.75,4.75,0,1,0-9.49,0v6.36H46.29V194.1a4.75,4.75,0,1,0-9.49,0v11.1A4.75,4.75,0,0,0,41.54,210h151.8a4.75,4.75,0,0,0,4.74-4.75V194.1a4.75,4.75,0,1,0-9.49,0v6.36H160.13V194.1a4.75,4.75,0,1,0-9.49,0v6.36H122.18Z"/><path class="cls-1" d="M173,70.11H138.65a4.75,4.75,0,0,0,0,9.49h29.58v24.07a4.74,4.74,0,0,0,4.74,4.74h15.62v49.06H168.33a4.74,4.74,0,0,0,0,9.48h25a4.74,4.74,0,0,0,4.74-4.74V103.67a4.75,4.75,0,0,0-4.74-4.75H177.72V74.86A4.75,4.75,0,0,0,173,70.11Z"/></g></g></svg>