<svg xmlns="http://www.w3.org/2000/svg" viewBox="0 0 780 752.83"><defs><style>.cls-1{fill:#fff;}</style></defs><title>Ресурс 1</title><g id="Слой_2" data-name="Слой 2"><g id="Main"><g id="Element"><path class="cls-1" d="M777.18,356l-83.79-83.79a9.91,9.91,0,0,0-13.61,0l-96,96-89.43-183.9a121.82,121.82,0,1,0-208.76,0L196.2,368.21l-96-96a9.62,9.62,0,0,0-13.61,0L2.82,356a9.62,9.62,0,0,0,0,13.61L132.47,499.26,15.9,739a8.82,8.82,0,0,0-.3,1.12,9.61,9.61,0,0,0-.48,1.88,9.05,9.05,0,0,0,0,1.8,9.18,9.18,0,0,0,.26,1.82,10.06,10.06,0,0,0,.65,1.68,9.67,9.67,0,0,0,.92,1.59,10,10,0,0,0,1.31,1.37,11.23,11.23,0,0,0,.83.86,9.2,9.2,0,0,0,.84.4,4.7,4.7,0,0,0,.44.34c.16.08.33,0,.49.12a9.52,9.52,0,0,0,3.63.84l.08,0c.07,0,.11-.05.17-.05a9.62,9.62,0,0,0,4.54-1.28,8.89,8.89,0,0,0,1.23-1.08,9.33,9.33,0,0,0,2-1.73L175.61,542.41,383.2,750a9.62,9.62,0,0,0,13.61,0L604.4,542.41,747.54,748.69a9.2,9.2,0,0,0,2,1.74,10.08,10.08,0,0,0,1.21,1.07,8.84,8.84,0,0,0,8.43.47c.16-.07.33,0,.48-.12s.28-.24.45-.34a9,9,0,0,0,.83-.4,8.39,8.39,0,0,0,.83-.86,9.39,9.39,0,0,0,1.31-1.37,8.42,8.42,0,0,0,.92-1.59,9.3,9.3,0,0,0,.66-1.68,9.17,9.17,0,0,0,.25-1.82,7.69,7.69,0,0,0-.51-3.68,8.77,8.77,0,0,0-.29-1.12L647.54,499.27,777.18,369.63A9.62,9.62,0,0,0,777.18,356ZM390,19.25A102.58,102.58,0,1,1,287.44,121.82,102.69,102.69,0,0,1,390,19.25Zm6.84,224.05L524.6,427.42,390,562,255.4,427.42,383.17,243.3c2.28.13,4.53.35,6.83.35S394.56,243.43,396.84,243.3Zm-332.15,161,31.08-31.08a9.62,9.62,0,1,0-13.61-13.61L51.08,390.66,23.24,362.83l70.17-70.17,93.88,93.86L141.37,481Zm23.07,231,210.7-433.29a121.68,121.68,0,0,0,63.4,38.3ZM535.49,584.1l-29.37-29.36a9.62,9.62,0,0,0-13.61,13.61l29.37,29.36L472.64,647l-29.36-29.37a9.62,9.62,0,1,0-13.61,13.61L459,660.56l-69,69-73.95-74,31.08-31.08a9.62,9.62,0,1,0-13.61-13.61L302.44,642l-49.23-49.23,31.08-31.08a9.62,9.62,0,1,0-13.61-13.61L239.6,579.18l-52.84-52.84,57.49-82.85,139,139a9.62,9.62,0,0,0,13.61,0l139-139,57.49,82.85Zm156.75,51.12-274.09-395a121.72,121.72,0,0,0,63.4-38.3ZM724,395.58l-29.36-29.36A9.62,9.62,0,0,0,681,379.83l29.36,29.36L638.64,481l-45.92-94.42,93.87-93.87,70.17,70.17Z"/></g></g></g></svg>