<svg xmlns="http://www.w3.org/2000/svg" viewBox="0 0 83.06 77.1"><defs><style>.cls-1{fill:#fff;}</style></defs><title>Ресурс 2</title><g id="Слой_2" data-name="Слой 2"><g id="Слой_1-2" data-name="Слой 1"><g id="svg7506"><g id="layer1"><g id="g6617"><path id="path1098" class="cls-1" d="M29.83,40.44a.21.21,0,0,1-.13-.2.3.3,0,0,1,.19-.31H30c0,.15.28.15-.18.47"/><path id="path1530" class="cls-1" d="M79,64.41c-.74,1.3-4.35-1.16-3.28-2.39.34-.53,1.54-.4,1.59-.4A2,2,0,0,1,79,64.41"/><path id="path1414" class="cls-1" d="M76.67,59.07c-.18,0-.24-.37-.41-.42-.42-1.36,1.77-2,2.42-1.39a.94.94,0,0,1-.51,1.7"/><path id="path1418" class="cls-1" d="M74.9,57.28c-.32-.09-.43-.54-.43-.72,0-.59.54-1.4,1.06-1.27.72.41.28,2.31-.63,2"/><path id="path1322" class="cls-1" d="M71.74,59a1.69,1.69,0,0,1,1.37-2l.23,0a1.76,1.76,0,0,1,1.08.84c.47,1.18-2.19,2.29-2.68,1.16"/><path id="path1378" class="cls-1" d="M69,53.23c-.16,0-.25-.44-.39-.47-.65-1.14,1.5-2,2.32-1.4.55.73-.39,1.93-1.29,1.93"/><path id="path1654" class="cls-1" d="M70.88,59c-1,.78-3.16-.85-3.43-2.43-.37-.25-.85-2.89.79-3.22,1.6.32,2.64,3.83,2.64,5.62h0"/><path id="path1458" class="cls-1" d="M63.36,57.21a1.34,1.34,0,0,1-.4,0,1.41,1.41,0,0,1-.59-.34c-.34.07-.43-.06-.43-.14,0-.39-.21-.62,0-1a1.59,1.59,0,0,1,.06-.3,1.46,1.46,0,0,1,1.4-1.06h.41l.23.09a1,1,0,0,1,1,1,1,1,0,0,1-.17.54.43.43,0,0,1,0,.16,1.46,1.46,0,0,1-1.41,1.06"/><path id="path1718" class="cls-1" d="M72.66,66a1.63,1.63,0,0,1-.56-1c0-1.08,1-2.5,1.79-2.34.48.31.6,1.56.6,2,0,1-1,1.91-1.83,1.41"/><path id="path1730" class="cls-1" d="M68.32,67.91c-.41,0-.48-.45-.48-.7s.15-.64.47-.68a.65.65,0,0,1,.47.66,1.12,1.12,0,0,1-.46.72"/><path id="path1790" class="cls-1" d="M67.35,69.41c-.27-.55.22-1.57.93-1.37.3.41-.41,1.54-.93,1.37"/><path id="path1794" class="cls-1" d="M69,72.23c-.59.27-1.28-.24-1.07-.67l.37-.23A.71.71,0,0,1,69,72a.85.85,0,0,1,0,.23"/><path id="path1406" class="cls-1" d="M64.38,70.41c-.63,0-.26-.56-.49-.93-.1-.66.79-1,1.31-1a1.72,1.72,0,0,1,1.52,1.34c0,.41-1,.65-1.41.65"/><path id="path1538" class="cls-1" d="M64.53,66.14c-.79,0-.63-.6-.62-1.19s1-.89,1.67-.89a2.06,2.06,0,0,1,2,1.14c0,.68-.85.93-1.52.93"/><path id="path1690" class="cls-1" d="M62.76,67.17c-.54-.53-.15-1.4.34-1.3.53.49.22,1.33-.34,1.3"/><path id="path1646" class="cls-1" d="M50,68.91c-1.84,0-1.53-1.11-1.6-2.08.8-.24,1.82,0,1.82,1,0,0,.3.84-.22,1.09"/><path id="path1610" class="cls-1" d="M46.51,70.83c-1,0-.34-.67-.55-1.56a1.23,1.23,0,0,1,.87-.55c1,0,2.26.76,2.31,1.72-.34.24-.18,1-.63,1"/><path id="path1306" class="cls-1" d="M53.13,73.65c-.84-.15-1.87-1.28-1.21-2a1.29,1.29,0,0,1,1.63.82,1.21,1.21,0,0,1,.05.18c0,.16,0,.92-.47.91"/><path id="path1742" class="cls-1" d="M52.67,69.09a2.18,2.18,0,0,1-.13-.72v-.15c-.51-.84.07-1.5.58-1.31a2.1,2.1,0,0,1,1.51-.64h.42c.55.39,1.26,1.41,1,1.94a3.31,3.31,0,0,0-3.36.85"/><path id="path1502" class="cls-1" d="M43.8,67.62s-1.82-1-1.84-1a1.31,1.31,0,0,1,1.21-1.39h0a2.41,2.41,0,0,1,1.06.46"/><path id="path1498" class="cls-1" d="M42,66.58a3.12,3.12,0,0,1-2.07-.82c0-.06-.76.51-.78.45-5.93.49-.81-2.36-.67-2.91.21-.85-.14-.5.55-.94a3.19,3.19,0,0,1,3-2.17,1.75,1.75,0,0,1,2.35.78,1.57,1.57,0,0,1,.12.3,3.15,3.15,0,0,1,.8,2.11,3.22,3.22,0,0,1-.94,2.27,1.72,1.72,0,0,0-.6-.1,2,2,0,0,0-1.72,1"/><path id="path1514" class="cls-1" d="M28.35,63.91h0c-1.81.06-3-.41-3.33-2a3.82,3.82,0,0,1,2.6-5.6.9.9,0,0,1,.87-.37,1.2,1.2,0,0,1,.93.45,3.82,3.82,0,0,1-1.07,7.52"/><path id="path1366" class="cls-1" d="M44.42,61.27A3.19,3.19,0,0,0,42,60.19h0a2.53,2.53,0,0,1-.42-1.28,2.49,2.49,0,0,1,.21-1,1.84,1.84,0,0,1,1.75-1.66,3.88,3.88,0,0,1,1.78.91,3.05,3.05,0,0,1,.48.47c-.07.24-1,1.69-1,1.95A2.84,2.84,0,0,0,45.19,61a2.42,2.42,0,0,1-.74.26m1.14-3.69c0-.1-.48-.3-.48-.39s.12-.23.49-.14l.27.27a3.45,3.45,0,0,0-.28.26"/><path id="path1346" class="cls-1" d="M40.67,57.78a2.16,2.16,0,0,1-1.61-.72,1.84,1.84,0,0,0,.06-.47,2.06,2.06,0,0,0-.56-1.41v-.11a3.4,3.4,0,0,0,1.19-1.41,2.15,2.15,0,0,1,.9-.2,2.17,2.17,0,0,1,2.16,2.08c.32.5,0,.23,0,1,0,.08-.78,1-1.09,1a2.08,2.08,0,0,1-1,.27"/><path id="path1574" class="cls-1" d="M35.42,55.41A3.35,3.35,0,0,1,34,54.28c-.64,0-.81-.74-.81-1,0-.65-.18-1,.15-1.31a3.39,3.39,0,0,1,6.77.29,3.16,3.16,0,0,1-.3,1.39c.35.74-.5,1.32-.67,2l-.69.13c-.37-.35-1,.41-1.59.41s-1.18,0-1.4-.73"/><path id="path1162" class="cls-1" d="M33.09,46.38c.12-1,.15-2,1.15-2h1.07c.26,0,.33.2.56.29.41,1-2.24,2.28-2.78,1.64"/><path id="path1154" class="cls-1" d="M31.17,42h-.23c-.36,0-.42-.23-.67-.46a.47.47,0,0,0,.12-.09c.11-1.83,3.9-2.11,4.18-1.09s-2.47,1.38-2.34,1.51a4.68,4.68,0,0,1-.83.16"/><path id="path1142" class="cls-1" d="M27.6,45.16c-.36-.07-.53-.8-.53-1.1a1.08,1.08,0,0,1,.7-1c.37.13.5.67.5,1s-.26,1-.67,1.12"/><path id="path1126" class="cls-1" d="M32.81,38.47c-.3,0-.35-.26-.61-.36,0-.89,0-1.65.84-1.59l1.2.07c.42,0,.58.26.87.58a1.11,1.11,0,0,1-.91,1.28H34"/><path id="path1134" class="cls-1" d="M30.66,36.07c-.16-.06-.26-.44-.26-.53a.75.75,0,0,1,.46-.7,1.21,1.21,0,0,1,.28.49c0,.37-.2.72-.48.74"/><path id="path814" class="cls-1" d="M27.81,29.42c-.52-.13-.74-1-.74-1.51s.17-1,.63-1.07.95.81.95,1.32a1.59,1.59,0,0,1-.84,1.26"/><path id="path1086" class="cls-1" d="M35.49,23c-.22,0-.54-.33-.74-.4a1.83,1.83,0,0,1,2.58-1.65c-.11,1-.33,2-1.33,2"/><path id="path1050" class="cls-1" d="M38.06,17.35c-.35,0-.19-.41-.38-.6,0,0,.12-.26.29-.77,0-.13,1.29.07,1.3.07.61-.13.46.25.74.38.07.42-.53.92-1.06.92"/><path id="path1710" class="cls-1" d="M37.5,13.91c-.08,0-.14-.24-.22-.24,0-.5.6-.79,1.13-.79.17,0,.62-.09.7.29,0,.57-.37.77-1,.77"/><path id="path1042" class="cls-1" d="M38.86,20.44c-.2-.55.65-.67.93-.73s.71.06.63.16.06.21.07.26a3.58,3.58,0,0,1-1.32.63"/><path id="path1038" class="cls-1" d="M40.36,20h-.27c0-.15-.5-.48-.5-.63,0-.82.63-2,1.46-1.83,1.3.35.61,1.24.52,1.51,0,.69-.54,1-1.21,1"/><path id="path830" class="cls-1" d="M40.21,23.91l-.37.19c-2,.23-2.7-2.33-1.51-3a2.19,2.19,0,0,1,.53-.68h.22a2.13,2.13,0,0,0,1.05-.27l.41-.28C41.06,20,42.9,21.23,42,22a1.92,1.92,0,0,1-1.81,1.87"/><path id="path998" class="cls-1" d="M45.08,19.82A1.25,1.25,0,0,1,43.9,18.5a.19.19,0,0,0,0-.08,1.38,1.38,0,0,1,.44-.65c.7-.07,1.07.89,1.07,1.59a.43.43,0,0,1-.34.46"/><path id="path1002" class="cls-1" d="M45.28,16.91c-.38,0-.36-.25-.49-.49a2.44,2.44,0,0,1,2.36-1.67,1.52,1.52,0,0,1,1.27.58c0,1-1.7,1.58-2.74,1.58"/><path id="path922" class="cls-1" d="M44.61,16.3a2.19,2.19,0,0,1-2-2.39,2.17,2.17,0,0,1,0-.25c.09,0,.45-.27.54-.27A2,2,0,0,1,45,15.45a1.08,1.08,0,0,1-.41.85"/><path id="path942" class="cls-1" d="M46.13,11.79c-.88,0-1-1-.82-1.59s.84-.41,1-.41c1,0,2,.71,1.92,1.44-.07.38-.55.6-.95.6"/><path id="path1014" class="cls-1" d="M48.91,14.33c-.5-.11-.67-.73-.67-1.18s.18-1,.56-1.07c.46.11.63.81.63,1.26s-.13,1-.52,1"/><path id="path1866" class="cls-1" d="M66.9,24a2.23,2.23,0,0,1-1.84-3.22c.29-.6,1.38-.69,1.33-.86l1.5.13.73.49A5.27,5.27,0,0,1,69.21,22a4.53,4.53,0,0,1-.4,1.92c-.23.29-1.15-.1-1.15-.1a1.82,1.82,0,0,1-.76.16"/><path id="path1854" class="cls-1" d="M65.66,20.58a1.1,1.1,0,0,1-1.4-.67,1.24,1.24,0,0,1-.06-.47c.14,0,.33-.27.48-.27.66,0,1.57.38,1.55,1.08a2,2,0,0,0-.57.33"/><path id="path786" class="cls-1" d="M55,19.49a3.55,3.55,0,0,1-1.85-.5,1.61,1.61,0,0,0,.5-1.17A1.63,1.63,0,0,0,52,16.2h0a1.8,1.8,0,0,0-.68.14,4.68,4.68,0,0,1,0-.53,3.85,3.85,0,0,1,.1-.83,2,2,0,0,0,1.2-1.85.24.24,0,0,0,0-.12,3.68,3.68,0,0,1,6,3.46,2,2,0,0,0-1,1.68v.18A3.68,3.68,0,0,1,55,19.49"/><path id="path790" class="cls-1" d="M32.59,32.91a5,5,0,0,1-4.78-3.51,2.43,2.43,0,0,0-.11-2.58,5,5,0,0,1,6.81-3.53,2.34,2.34,0,0,1,2,.82,2.93,2.93,0,0,1,1.07,2l-.09.55a5,5,0,0,1-3.59,6.09,4.85,4.85,0,0,1-1.31.16"/><path id="path794" class="cls-1" d="M46.4,6.41a3.11,3.11,0,1,1,3.1-3.12v0a3.1,3.1,0,0,1-3.1,3.1"/><path id="path798" class="cls-1" d="M22.67,15.74a1.81,1.81,0,1,1,1.81-1.83,1.81,1.81,0,0,1-1.81,1.83"/><path id="path818" class="cls-1" d="M43.54,17.23c-.09.34-.51.27-.86.27-.18,0-.64-.07-.62-.41a1.84,1.84,0,0,1-.7-2.5,1.88,1.88,0,0,1,1.32-.92,3.23,3.23,0,0,0,1.93,2.63,1.76,1.76,0,0,1-1.07.93"/><path id="path806" class="cls-1" d="M42.57,22.08A2.57,2.57,0,0,1,42,22v-.11A1.93,1.93,0,0,0,40.36,20a2.16,2.16,0,0,0,.84-1.68,2.22,2.22,0,0,0-.15-.8,2.68,2.68,0,0,1,1-.46,1.78,1.78,0,0,0,.9.24,1.65,1.65,0,0,0,.58-.1,2.61,2.61,0,0,1,.81.54v.13a2.83,2.83,0,0,0,.74,1.92A2.52,2.52,0,0,1,42.57,22"/><path id="path810" class="cls-1" d="M25.71,30.64a2.42,2.42,0,1,1,2-3.8,4.82,4.82,0,0,0-.13,1.07,5.05,5.05,0,0,0,.23,1.5,2.4,2.4,0,0,1-2.1,1.22"/><path id="path826" class="cls-1" d="M61.7,17.68h-.18a2,2,0,0,0-1.7-1.48,1.76,1.76,0,0,1-.06-.46,1.94,1.94,0,1,1,1.94,1.94h0"/><path id="path838" class="cls-1" d="M65,7.39a2.09,2.09,0,0,0,0-.5,3.46,3.46,0,0,0-1.26-2.67,1.75,1.75,0,1,1,2,2.88,1.78,1.78,0,0,1-.73.29"/><path id="path842" class="cls-1" d="M61.64,12.32a.91.91,0,0,0,0-.33,1.09,1.09,0,0,0-1-1.08,1.11,1.11,0,0,0-1,.56,1.76,1.76,0,0,1,0-1.72,3.45,3.45,0,0,0,1.94.6,3.38,3.38,0,0,0,1.22-.22,1.86,1.86,0,0,1,.07.52,1.73,1.73,0,0,1-1.28,1.68"/><path id="path846" class="cls-1" d="M66.77,10.78a2.38,2.38,0,0,0-1.32-.4,3.38,3.38,0,0,0-.45,0,1.66,1.66,0,0,1-.52-1.21,2.15,2.15,0,0,1,.07-.5,2.33,2.33,0,0,0,.27-.52,1.69,1.69,0,0,1,2.37-.3,1.84,1.84,0,0,1,.25.23,1.62,1.62,0,0,0,.1,2,1.65,1.65,0,0,1-.77.61"/><path id="path854" class="cls-1" d="M64.8,7.41c-1,0-2.44-.73-2.44-1.69,0-.6,1-1.18,1.46-1.5a2.21,2.21,0,0,1,2,2.1c0,.17-.74.91-.77,1.07h-.24"/><path id="path858" class="cls-1" d="M60.33,10.63c-.72,0-.09-.52-.64-.89.3-.51.9-1.41,1.53-1.41.78,0,1.4,1.08,1.63,1.79a5.38,5.38,0,0,1-1.51.56"/><path id="path862" class="cls-1" d="M64.55,8.72a1.72,1.72,0,0,1,.27-.52,2.33,2.33,0,0,1-.27.52"/><path id="path866" class="cls-1" d="M59.61,20.12a2,2,0,0,1-2-1.79,3.56,3.56,0,0,0,.94-1.86,2.06,2.06,0,0,1,1-.28h.21a1.91,1.91,0,0,0,1.7,1.47,2,2,0,0,1,.06.48,1.9,1.9,0,0,1-.35,1.11h-.24a1.1,1.1,0,0,0-1.07.85h-.31"/><path id="path870" class="cls-1" d="M57.66,18.33a.77.77,0,0,1-.53-.46c0-.72,1-1.58,1.47-1.4.61.33-.28,2-.94,1.86"/><path id="path874" class="cls-1" d="M61.52,17.67c-.68.43-2.36-.67-1.7-1.47.74-.43,2,.85,1.7,1.47"/><path id="path882" class="cls-1" d="M63.26,3.85c-.31,0-.68.16-.81-.31a.67.67,0,0,1,.81.31"/><path id="path886" class="cls-1" d="M52.7,11.81A1.51,1.51,0,0,1,51.9,9h.17a2,2,0,0,0,.9-.21,1.52,1.52,0,0,1,1.25,1.74,1.5,1.5,0,0,1-1.52,1.26"/><path id="path890" class="cls-1" d="M40,9.91c-2.19,1.52-2.47-1.31-2.11-1.65a1.51,1.51,0,0,1,3,.55A1.49,1.49,0,0,1,40,9.91"/><path id="path898" class="cls-1" d="M59.92,20.09c-.23-.54.34-1.06.86-1.06.09,0,.37.22.45.23.21.62-.83,1.27-1.31.83"/><path id="path902" class="cls-1" d="M8.54,8.48A1.1,1.1,0,1,1,9.63,7.37v0A1.09,1.09,0,0,1,8.54,8.48"/><path id="path906" class="cls-1" d="M60.6,13.09A1.09,1.09,0,0,1,59.51,12h0a1.26,1.26,0,0,1,.13-.54,1.76,1.76,0,0,0,1.54.93,1.43,1.43,0,0,0,.46-.07,1.06,1.06,0,0,1-1,.77"/><path id="path910" class="cls-1" d="M60.08,12.39c-.66,0-.14-.38-.43-.92a1.52,1.52,0,0,1,1.22-.89c.61,0,.87.73.91,1.39a.64.64,0,0,1-.14.35,5.53,5.53,0,0,1-.86.31"/><path id="path914" class="cls-1" d="M27.7,3.91a1.1,1.1,0,1,1,1.1-1.1,1.1,1.1,0,0,1-1.1,1.1h0"/><path id="path918" class="cls-1" d="M44.79,16.37l-.18-.07a1.85,1.85,0,0,0-.83-2.47,1.91,1.91,0,0,0-.78-.19h-.27a1.71,1.71,0,0,1,0-.32,3.2,3.2,0,0,1,2.64-3.15,1.94,1.94,0,0,0,2.44,1.25,2,2,0,0,0,.51-.25,3.18,3.18,0,0,1,.55.85,2,2,0,0,0,.1,2.25,3.06,3.06,0,0,1-.49,1,3.12,3.12,0,0,0-1.2-.26,2.86,2.86,0,0,0-2.43,1.35"/><path id="path926" class="cls-1" d="M31.65,18.62A3.19,3.19,0,0,1,29.59,13a2.77,2.77,0,0,0,1.32-.67,3.65,3.65,0,0,1,.74-.08A3.2,3.2,0,0,1,32,18.62h-.36"/><path id="path930" class="cls-1" d="M37.68,16.75a1.93,1.93,0,0,1-.42-3.07h.25a2.71,2.71,0,0,0,1.58-.51,2,2,0,0,1,1.39,2.38,1.84,1.84,0,0,1-.49.87,2.33,2.33,0,0,0-.91-.21h0a2.14,2.14,0,0,0-1.4.53"/><path id="path934" class="cls-1" d="M43.68,69.43a1.94,1.94,0,0,1-1.94-1.94h0a2.07,2.07,0,0,1,.22-.91h0a3.14,3.14,0,0,0,2.26-.93,1.94,1.94,0,0,1-.6,3.78"/><path id="path938" class="cls-1" d="M48.26,11.23a3.19,3.19,0,0,0-2.39-1.08h-.56a2.18,2.18,0,0,1-.08-.57,1.94,1.94,0,1,1,3,1.6"/><path id="path946" class="cls-1" d="M21.57,23.43a1.94,1.94,0,1,1,1.94-1.94h0a1.93,1.93,0,0,1-1.94,1.93"/><path id="path958" class="cls-1" d="M65,11c-.45,0-.1-.32,0-.61a.57.57,0,0,1,.58-.32c.49,0,1.15.32,1.2.67s-.75.42-1,.42"/><path id="path962" class="cls-1" d="M11.15,17.53A1.87,1.87,0,1,1,13,15.64v0a1.87,1.87,0,0,1-1.87,1.87h0"/><path id="path966" class="cls-1" d="M37.44,26.69a5,5,0,0,0-2.93-3.39,2.91,2.91,0,0,1,.24-.74,1.76,1.76,0,0,0,.64.11h0a1.93,1.93,0,0,0,1.93-1.76h0a3.1,3.1,0,0,1,1,.18,2,2,0,0,0-.18.83,1.93,1.93,0,0,0,1.87,2h.2a2.86,2.86,0,0,1-2.77,2.81"/><path id="path978" class="cls-1" d="M29,13a2.88,2.88,0,0,1-.34-5.75H29a2.89,2.89,0,0,1,1.38.35,1.66,1.66,0,0,0,.39.26,2.9,2.9,0,0,1,1.1,2.26,2.83,2.83,0,0,1-1,2.15,3.24,3.24,0,0,0-1.32.67A2.88,2.88,0,0,1,29,13"/><path id="path982" class="cls-1" d="M29.59,13a3.49,3.49,0,0,1,1.32-.66,2.76,2.76,0,0,1-1.32.66"/><path id="path986" class="cls-1" d="M19.36,13.45a2.53,2.53,0,1,1,2.53-2.54,2.53,2.53,0,0,1-2.53,2.54h0"/><path id="path990" class="cls-1" d="M13.82,25.72A2.16,2.16,0,1,1,16,23.56a2.16,2.16,0,0,1-2.18,2.16"/><path id="path994" class="cls-1" d="M47.22,20.78a2.86,2.86,0,0,1-2.14-1,1.13,1.13,0,0,0,0-.26,2.52,2.52,0,0,0-.74-1.79,2.78,2.78,0,0,1,.44-1.4,3.23,3.23,0,0,0,3.63-1.09,2.88,2.88,0,0,1-1.2,5.5"/><path id="path1006" class="cls-1" d="M50.55,15.16a2,2,0,0,1-1.64-.83,3.07,3.07,0,0,0-.11-2.25,2.08,2.08,0,0,1,1.75-1,2,2,0,0,1,2,1.92,3.69,3.69,0,0,0-1.19,2,2,2,0,0,1-.84.18"/><path id="path1010" class="cls-1" d="M51.2,14.91c.17-.78.45-1.73,1.38-1.9a4.23,4.23,0,0,1,.35.44c0,.83-.76,1.8-1.46,1.56"/><path id="path1018" class="cls-1" d="M51.9,9a2,2,0,0,1-1.3-3.44,3.6,3.6,0,0,0,2.93,1.51,2.81,2.81,0,0,0,.58,0A2,2,0,0,1,53,8.82h-.27a1.61,1.61,0,0,0-.8.23"/><path id="path1022" class="cls-1" d="M52.12,9.27C52.06,9.27,52,9,51.9,9c.23-.14.17-.4.47-.4l.6.2a1,1,0,0,1-.71.51"/><path id="path1026" class="cls-1" d="M28,41.91h0A1.94,1.94,0,0,1,27.72,38H28a1.92,1.92,0,0,1,1.89,1.87,1.59,1.59,0,0,0-.06.43v.08A1.92,1.92,0,0,1,28,41.91"/><path id="path1030" class="cls-1" d="M25.52,46.35h0a2.43,2.43,0,0,1,0-4.85h0a2.44,2.44,0,0,1,2.24,1.55,2.86,2.86,0,0,0-.29,1.25,3.13,3.13,0,0,0,.12.86,2.4,2.4,0,0,1-2.08,1.19"/><path id="path1034" class="cls-1" d="M38.86,20.44A2.1,2.1,0,0,1,37,18.33a2.12,2.12,0,0,1,.71-1.58A1.94,1.94,0,0,0,40,16.43a2.15,2.15,0,0,1,1,1.12,2.52,2.52,0,0,0-1,2A3.38,3.38,0,0,0,40,20h0a2.08,2.08,0,0,0-1.22.43"/><path id="path1054" class="cls-1" d="M7.24,34.91h0a1.94,1.94,0,0,1,0-3.88h0a1.94,1.94,0,1,1,0,3.88"/><path id="path1058" class="cls-1" d="M1.45,26.84h0a1.45,1.45,0,0,1,0-2.9h0a1.45,1.45,0,0,1,0,2.9h0"/><path id="path1062" class="cls-1" d="M2.14,54.35h0a1.46,1.46,0,1,1,1.45-1.47v0a1.44,1.44,0,0,1-1.46,1.44h0"/><path id="path1066" class="cls-1" d="M20.22,46.64h0a1.94,1.94,0,1,1,2-1.93,1.94,1.94,0,0,1-2,1.93h0"/><path id="path1070" class="cls-1" d="M51.72,74.67h0a1.5,1.5,0,0,1,0-3h.2a3.1,3.1,0,0,0,1.21,2,1.5,1.5,0,0,1-1.41,1"/><path id="path1074" class="cls-1" d="M34.57,40.36A3.14,3.14,0,0,0,33.1,40h-.33a1.53,1.53,0,0,0-.56-.83,1.52,1.52,0,0,1-.08-.56,1.68,1.68,0,0,1,.07-.5,2.34,2.34,0,0,0,.86.16h0a2.41,2.41,0,0,0,2-1.1,1.83,1.83,0,0,1,.32,2.58,1.73,1.73,0,0,1-.85.61"/><path id="path1078" class="cls-1" d="M22.7,37.13h0a1.94,1.94,0,0,1-.28-3.87h.28a1.94,1.94,0,0,1,0,3.87"/><path id="path1082" class="cls-1" d="M34.75,22.56a1.94,1.94,0,0,1,.64-3.77h0a2,2,0,0,1,1.93,1.95.67.67,0,0,1,0,.2,2.9,2.9,0,0,0-2.57,1.62"/><path id="path1090" class="cls-1" d="M26.1,22.73h0a2.67,2.67,0,1,1,0-5.34h0a2.67,2.67,0,1,1,0,5.34"/><path id="path1094" class="cls-1" d="M30.29,41.45a1.51,1.51,0,0,1-.46-1,1.91,1.91,0,0,0,.06-.48h0a1.53,1.53,0,0,1,1.44-1.06,1.63,1.63,0,0,1,.88.3,1.85,1.85,0,0,0,.54.83,3.19,3.19,0,0,0-2.36,1.45h-.1"/><path id="path1102" class="cls-1" d="M32.75,40a1.85,1.85,0,0,1-.54-.83,1.53,1.53,0,0,1,.56.83h0"/><path id="path1106" class="cls-1" d="M33.07,46.38h0a3.47,3.47,0,0,1-.64-.06c-1,.06-2.71-.52-2.71-1.29-.52-2,.05-2.94.62-3.54a1.86,1.86,0,0,0,1.41.31,1.5,1.5,0,0,0,1.08-1.42,1.09,1.09,0,0,0,0-.36,1.84,1.84,0,0,0,1.19.44h0a1.76,1.76,0,0,0,.6-.1A3.18,3.18,0,0,1,36,44.65l0,.09a2.12,2.12,0,0,0-.75-.14h0a2,2,0,0,0-2,1.78h0"/><path id="path1122" class="cls-1" d="M32.2,38.11a2.42,2.42,0,0,1-1.54-2,2.62,2.62,0,0,0,.2-1v-.18a2.42,2.42,0,0,1,2.2-1.42h0a2.42,2.42,0,0,1,2,3.75A1.82,1.82,0,0,0,34,36.78h0a1.85,1.85,0,0,0-1.8,1.33"/><path id="path1130" class="cls-1" d="M28,37.91h0a2.88,2.88,0,0,1,0-5.75h0a2.89,2.89,0,0,1,2.86,2.71,2.5,2.5,0,0,0-.22,1v.25A2.87,2.87,0,0,1,28,37.91"/><path id="path1138" class="cls-1" d="M30.35,47.19h0a2.87,2.87,0,0,1-2.74-2,2.4,2.4,0,0,0,.33-1.28,2.74,2.74,0,0,0-.16-.89,2.88,2.88,0,0,1,2.51-1.6l.06.06a3.21,3.21,0,0,0,1.07,4.41,3.09,3.09,0,0,0,1,.4,2.83,2.83,0,0,1-2.07.87"/><path id="path1146" class="cls-1" d="M30.35,41.51l-.06-.06h.1v.06"/><path id="path1158" class="cls-1" d="M35.11,48.66h0a2,2,0,0,1-2-2v-.24a3.18,3.18,0,0,0,2.78-1.64,2,2,0,0,1-.76,3.92"/><path id="path1166" class="cls-1" d="M58.74,5A2.39,2.39,0,1,1,60.91.76,2.42,2.42,0,0,1,62.05,2a1.43,1.43,0,0,0-.09.5,1.33,1.33,0,0,0,.23.75.88.88,0,0,1,0,.23h-.51a3.47,3.47,0,0,0-2.89,1.58"/><path id="path1170" class="cls-1" d="M59.6,5.91c-.38,0-.53-.75-.86-.91.62-1-.11-2.09,1.1-2.09.17,0,2.14.53,2.3.55-.26,1-.13,2.59-1.25,2.59"/><path id="path1174" class="cls-1" d="M62.19,3.25C62,3,61.8,2.81,61.8,2.53s.19-.37.25-.53c.11.28.35.55.35.87,0,.12-.19.26-.21.38"/><path id="path1182" class="cls-1" d="M70.48,17.67c-.22,0-.39-.53-.39-.82a.63.63,0,0,1,.26-.47,1.57,1.57,0,0,1,.43.8c0,.1,0,.42-.3.49"/><path id="path1178" class="cls-1" d="M68.1,20.55a1.93,1.93,0,0,0-1.2-.42,1.89,1.89,0,0,0-.67.12,2,2,0,0,0-1.61-.85H64.2a3.5,3.5,0,0,1,.27-4.49,2.49,2.49,0,0,0,1,.21,2.38,2.38,0,0,0,2.08-1.21,3.52,3.52,0,0,1,2.8,2.47,1.82,1.82,0,0,0-.06.46,2,2,0,0,0,.19.83,3.44,3.44,0,0,1-1.11,2.24,2,2,0,0,0-1.27.63"/><path id="path1186" class="cls-1" d="M65.17,15.52c-.35,0-.7-.57-.7-.57S65,13,66,13a3.52,3.52,0,0,1,1.58.87c.11.86-.9,1.46-1.8,1.46"/><path id="path1198" class="cls-1" d="M53.57,7.37c-1.2,0-2.84-.55-3-1.79.37-.39.71-.84,1.28-.84,1.13,0,2.72.69,2.23,2.25h0c-.19,0-.71.74-.9.74"/><path id="path1206" class="cls-1" d="M71.53,15a.46.46,0,0,1,.43-.27s.35.14.38.14c-.1.31-.65.46-.81.13"/><path id="path1214" class="cls-1" d="M75.31,16.11a2.89,2.89,0,0,1-1.79-1.92,2.85,2.85,0,0,0,.84-1.95,2.35,2.35,0,0,0,1.1.27,2.39,2.39,0,0,0,2.26-1.6,3,3,0,0,1,1,.93,3.1,3.1,0,0,0-2.39,3v.24a2.35,2.35,0,0,0-1,1"/><path id="path1218" class="cls-1" d="M74.93,12.77c-.4,0-.57-.53-.57-.53v-.09a3,3,0,0,0-.1-.78c0-.74.9-1.18,1.69-1.18.52,0,1.49.13,1.77.72.1,1.1-1.27,1.89-2.31,1.89"/><path id="path1226" class="cls-1" d="M73.52,14.19c-.07-.25-.51-.7-.51-1,0-.55.29-1.24.84-1.33.15.14.79,0,1,.15,0,.76-.62,2.09-1.31,2.16"/><path id="path1230" class="cls-1" d="M74.36,12.24a5,5,0,0,1-.78-.43.89.89,0,0,1,.68-.44c.38.15.42.73.42,1a4.42,4.42,0,0,0-.61.13"/><path id="path1242" class="cls-1" d="M73.08,9.91c-.24.44-1.47-.22-1.32-.64s1.22-.1,1.34.48v.16"/><path id="path1246" class="cls-1" d="M73.08,10.16l-.25-.05s.21-.6.22-.65.49.45.56.51-.34.12-.37.12"/><path id="path1238" class="cls-1" d="M73.31,9.91l-.21-.16c-.4-1.45,1-2.55,2-2,0,.08.28.43.28.51,0,1-1,2.16-2.09,1.66"/><path id="path1250" class="cls-1" d="M68.74,10.7a1.61,1.61,0,0,1-1.2-.53,1.67,1.67,0,0,0-.1-2L67.56,8a2.38,2.38,0,0,0,1.7.72,2.42,2.42,0,0,0,1-.21,1.57,1.57,0,0,1,.12.6,1.68,1.68,0,0,1-.06.45A2.89,2.89,0,0,0,69,10.68h-.28"/><path id="path1254" class="cls-1" d="M67.54,10.17c-.26-.29-.8-.69-.8-1.1a1.09,1.09,0,0,1,.7-.94,1.12,1.12,0,0,1,.76,1.1c0,.35-.47.67-.66.94"/><path id="path1258" class="cls-1" d="M69,10.68c-.22-.56.55-1.36,1.28-1.14.27.47-.8,1.67-1.28,1.14"/><path id="path1262" class="cls-1" d="M56.62,11.67a2.1,2.1,0,1,1,2.11-2.1,2.1,2.1,0,0,1-2.11,2.1h0"/><path id="path1266" class="cls-1" d="M38.86,5.5A2.1,2.1,0,1,1,41,3.4a2.1,2.1,0,0,1-2.14,2.1"/><path id="path1270" class="cls-1" d="M31.43,8.05a1.66,1.66,0,0,1-.66-.14,3.77,3.77,0,0,0-.39-.26,1.58,1.58,0,1,1,1.06.41h0"/><path id="path1274" class="cls-1" d="M30.77,7.91a1.66,1.66,0,0,1-.39-.26,2.65,2.65,0,0,1,.39.26"/><path id="path1282" class="cls-1" d="M71.36,7.42a1.36,1.36,0,0,1,.14-.33.94.94,0,0,1-.14.33"/><path id="path1286" class="cls-1" d="M68.11,8.79c-.27-.1-.54-.81-.54-.81,0-.44.62-.86,1.09-.86.68,0,1.83.62,1.58,1.37s-.8.53-1.15.53"/><path id="path1290" class="cls-1" d="M79.11,64.41H79A3.29,3.29,0,0,0,75.84,62h-.12a3.73,3.73,0,0,1-.2-1.2,3.63,3.63,0,0,1,.73-2.17,1.89,1.89,0,0,0,.53.08,2,2,0,0,0,1.89-1.47h.43a3.61,3.61,0,0,1,2.33.85h-.32a1.94,1.94,0,0,0,0,3.88,1.91,1.91,0,0,0,1.55-.79,3.59,3.59,0,0,1-3.58,3.26"/><path id="path1294" class="cls-1" d="M55.2,64.18A3.68,3.68,0,0,1,52,62a2.4,2.4,0,0,0,.83-3.29,2.51,2.51,0,0,0-.38-.48,3.69,3.69,0,0,1,2.91-1.43,3.61,3.61,0,0,1,2.41.91c.51-.06,1.12.29,1.12.43,0,.84.44,1.19.11,1.81a2.44,2.44,0,0,1,0,.54,3.59,3.59,0,0,1-.12.93c.36,1.29-2.12,3.41-3.73,2.75"/><path id="path1298" class="cls-1" d="M18.23,34a2.59,2.59,0,1,1,2.58-2.6v0A2.59,2.59,0,0,1,18.23,34"/><path id="path1302" class="cls-1" d="M55,74.27a3,3,0,0,1-1.85-.62,1.49,1.49,0,0,0-1.21-2,4.68,4.68,0,0,1,0-.53,3.11,3.11,0,0,1,.79-2.07,1.47,1.47,0,0,1,1.54-1.18c1,0,1.9-1.12,2.29.18.22.15.59,1.07.84,1.18a3.11,3.11,0,0,1-.58,4.36,3.06,3.06,0,0,1-1.84.64"/><path id="path1310" class="cls-1" d="M46.65,75.39a3.1,3.1,0,0,1-.7-6.12,2,2,0,0,0,2,1.56,1.94,1.94,0,0,0,1.2-.39,3.09,3.09,0,0,1-2.48,5h0"/><path id="path1314" class="cls-1" d="M71.65,59.05a3.94,3.94,0,0,1-.77-.08h0a3.51,3.51,0,0,0-2.81-3.43,2.09,2.09,0,0,0,.3-.64,2.21,2.21,0,0,0-.13-1.56,4.35,4.35,0,0,1,.38-.57,1.61,1.61,0,0,0,.44.06,1.94,1.94,0,0,0,1.88-1.45,3.35,3.35,0,0,1,.71-.07,3.88,3.88,0,0,1,3.88,3.88v.12a2,2,0,0,0-.69,1.49,2.07,2.07,0,0,0,.06.5,3.51,3.51,0,0,1-.48.6,2,2,0,0,0-.83-.19,2,2,0,0,0-1.85,1.35h-.09"/><path id="path1318" class="cls-1" d="M73.59,61.57a1.94,1.94,0,0,1-1.94-1.94h0a2,2,0,0,1,.09-.59,3.8,3.8,0,0,0,2.68-1.13,1.94,1.94,0,0,1-.83,3.69"/><path id="path1326" class="cls-1" d="M82.69,61.15a2.2,2.2,0,0,1-1.36-1.24c-.06-.16-.17-.31.11-1.8a1.95,1.95,0,0,1,1.25,3.06"/><path id="path1330" class="cls-1" d="M81.12,61.91a1.94,1.94,0,0,1,0-3.88h.32a3.58,3.58,0,0,1,1.26,2.73v.33a2,2,0,0,1-1.57.79"/><path id="path1334" class="cls-1" d="M41.79,57.91a2.33,2.33,0,0,1-.08-.38,2.15,2.15,0,0,0,1.12-1.89v-.08a1.88,1.88,0,0,1,.81-.18,1.94,1.94,0,0,1,1.93,1.69c-.69.34-1-.58-1.58-.58a2.42,2.42,0,0,0-2.2,1.42"/><path id="path1338" class="cls-1" d="M19.43,61.64a2.42,2.42,0,1,1,0-4.84h.22a1.59,1.59,0,0,1,2.16.59,1.61,1.61,0,0,1,0,1.52v.31a2.42,2.42,0,0,1-2.42,2.42h0"/><path id="path1342" class="cls-1" d="M26.72,64.78a1.94,1.94,0,0,1-2-1.92,2,2,0,0,1,.24-1,3.8,3.8,0,0,0,3.33,2,1.92,1.92,0,0,1-1.63.89"/><path id="path1354" class="cls-1" d="M32.17,55.48a1.94,1.94,0,1,1,0-3.88A2,2,0,0,1,33.3,52v.29a3.36,3.36,0,0,0,.67,2,1.93,1.93,0,0,1-1.79,1.2"/><path id="path1358" class="cls-1" d="M11.37,66.61a1.94,1.94,0,1,1,1.94-1.94,1.94,1.94,0,0,1-1.94,1.94h0"/><path id="path1362" class="cls-1" d="M14.42,56.59a1.94,1.94,0,1,1,1.94-1.94h0a1.94,1.94,0,0,1-1.94,1.94"/><path id="path1374" class="cls-1" d="M68.62,52.75A1.94,1.94,0,1,1,71,50.91a2,2,0,0,1-.06.49,3.92,3.92,0,0,0-2.32,1.39"/><path id="path1382" class="cls-1" d="M62.09,62.5h-.31c-.63.41-1.46-.3-1.26-.78a1.94,1.94,0,0,1-.37-1.14,2,2,0,0,1,.08-.54c-.2-.66.85-1.6,1.35-1.33a2.24,2.24,0,0,1,.51-.07,1.94,1.94,0,0,1,0,3.88h0"/><path id="path1386" class="cls-1" d="M38.91,64.08c-.56-.49.13,2.53-.64,2.46a2,2,0,0,1-2-2,2,2,0,0,1,.42-1.19A2,2,0,0,1,39,62.38a3.43,3.43,0,0,0-.16,1,2.74,2.74,0,0,0,.08.7"/><path id="path1390" class="cls-1" d="M32.38,73.91a1.91,1.91,0,1,1,.09,0h-.09"/><path id="path1394" class="cls-1" d="M65.19,72.38a1.73,1.73,0,0,1-1.3-2.9,2.83,2.83,0,0,0,2.83.32,1.78,1.78,0,0,1,.22.84,1.74,1.74,0,0,1-1.74,1.74h0"/><path id="path1402" class="cls-1" d="M66.72,69.8a1.76,1.76,0,0,0-1.53-.9,1.74,1.74,0,0,0-1.3.58,2.82,2.82,0,0,1-1.13-2.26h0a3.9,3.9,0,0,0,.34-1.31,3,3,0,0,1,.81-.92,2.34,2.34,0,0,0,1.92,1,2.4,2.4,0,0,0,1.72-.72,2.8,2.8,0,0,1,.76,1.31,1.81,1.81,0,0,0-.15.68,1.71,1.71,0,0,0,.16.7v.15a2.43,2.43,0,0,0-.93,1.37,2.55,2.55,0,0,1-.63.39"/><path id="path1410" class="cls-1" d="M76.26,58.65a2,2,0,0,1-1.36-1.37,3.84,3.84,0,0,0,.63-2,2,2,0,0,1,2.8.38,2,2,0,0,1,.41,1.11,1.91,1.91,0,0,1-.06.48,3.61,3.61,0,0,0-2.42,1.39"/><path id="path1422" class="cls-1" d="M32.17,50.77a1.36,1.36,0,1,1-.23-2.71h.23a1.36,1.36,0,0,1,0,2.71"/><path id="path1426" class="cls-1" d="M59.7,60.09A1.84,1.84,0,0,1,59,60a3.67,3.67,0,0,0-1.23-2.24,2,2,0,0,1,1.92-1.56,2.1,2.1,0,0,1,.56.08,1.82,1.82,0,0,0,0,.33,1.1,1.1,0,0,0,1.1,1.09.71.71,0,0,0,.29,0,2.14,2.14,0,0,1,.06.5,1.54,1.54,0,0,1-.08.57,1.94,1.94,0,0,0-1.35,1.33,1.88,1.88,0,0,1-.53.07"/><path id="path1438" class="cls-1" d="M65.18,56.24a1.85,1.85,0,0,1-.37-.25A1.46,1.46,0,0,0,64,54.43a2.28,2.28,0,0,1,.08-.78A2.22,2.22,0,0,1,66.22,52a2.16,2.16,0,0,1,.62.09,2.23,2.23,0,0,1,1.4,1.2,3.88,3.88,0,0,0-.47,1.85v.31h-.39a3.5,3.5,0,0,0-2.21.79"/><path id="path1446" class="cls-1" d="M61.6,57.62c-1.08.63-2.23-.47-1.33-1.38a1.1,1.1,0,0,1,1.39-.7,1.28,1.28,0,0,1,.24.11,1.45,1.45,0,0,0,.47,1.18,1.07,1.07,0,0,1-.77.79"/><path id="path1454" class="cls-1" d="M68,73.74a1.09,1.09,0,1,1-.06-2.18,2.32,2.32,0,0,0,1.07.67,1.25,1.25,0,0,1,.08.42A1.09,1.09,0,0,1,68,73.74h0"/><path id="path1470" class="cls-1" d="M36.53,62.51a2.31,2.31,0,0,1-.86-4.46,2,2,0,0,0,1.41.57,2,2,0,0,0,.9-.21,2.3,2.3,0,0,1-1.45,4.1h0"/><path id="path1474" class="cls-1" d="M19.32,67.83a1.43,1.43,0,1,1,1.42-1.44v0a1.41,1.41,0,0,1-1.42,1.42"/><path id="path1478" class="cls-1" d="M29.42,56.4a3.89,3.89,0,0,0-1.07-.15,6,6,0,0,0-.73.07,1.15,1.15,0,0,1-.16-.58,1.09,1.09,0,1,1,2.18,0,1.05,1.05,0,0,1-.22.66"/><path id="path1482" class="cls-1" d="M31.39,22.33a1.1,1.1,0,1,1,1.1-1.1h0a1.09,1.09,0,0,1-1.09,1.09h0"/><path id="path1490" class="cls-1" d="M53.13,19c-1.36,0-1.88-1.39-1.8-2.65a1.18,1.18,0,0,1,.71-.29,2,2,0,0,1,1.79,1.86c0,.46-.22,1-.7,1"/><path id="path1494" class="cls-1" d="M53.44,77.1a1.41,1.41,0,1,1,1.4-1.42v0a1.4,1.4,0,0,1-1.4,1.4h0"/><path id="path1526" class="cls-1" d="M75.85,68.57A3.25,3.25,0,0,1,72.66,66a2.51,2.51,0,0,0,1.24-3.34v0A3.31,3.31,0,0,1,75.73,62,3.61,3.61,0,0,0,79,64.41a3.28,3.28,0,0,1-3.16,4.16"/><path id="path1534" class="cls-1" d="M67.55,65.2a2.82,2.82,0,0,0-3.64-.29,2.3,2.3,0,0,1-.47-1.41,2.38,2.38,0,0,1,1.42-2.19,2.19,2.19,0,0,1,1.88-.87c.19,0,1.37,1.31,1.2,1.91a2.45,2.45,0,0,1,.29,1.15,2.35,2.35,0,0,1-.68,1.66"/><path id="path1542" class="cls-1" d="M50.79,62.35h0c-1.67.42-1.27-.77-1.66-1,.41-.49,1.41-1.11,1.41-1.8a2.89,2.89,0,0,0-.64-1.82,2.59,2.59,0,0,1,.91-.18,2.41,2.41,0,0,1,1.67.68,2.27,2.27,0,0,1,1.36,2c0,.54-1,1.78-1.81,1.77a2.29,2.29,0,0,1-1.22.34"/><path id="path1550" class="cls-1" d="M47,62.37A2.87,2.87,0,0,1,45.12,61a2.43,2.43,0,0,0,1-3.3,2.7,2.7,0,0,0-.27-.39,2.87,2.87,0,0,1,4,.43A1.54,1.54,0,0,1,51,59.36,6.16,6.16,0,0,1,49,62.58a2.88,2.88,0,0,1-2-.21"/><path id="path1554" class="cls-1" d="M45.16,61a2.91,2.91,0,0,1-.29-2.21,1.89,1.89,0,0,0,.69-1.22,3.45,3.45,0,0,1,.28-.26A1.87,1.87,0,0,1,47,58.91c0,.92-.92,2.29-1.84,2.09"/><path id="path1558" class="cls-1" d="M44.87,58.8a3.09,3.09,0,0,1,.69-1.22,1.89,1.89,0,0,1-.69,1.22"/><path id="path1566" class="cls-1" d="M25.09,53.91a3.39,3.39,0,1,1,3.39-3.39h0a3.39,3.39,0,0,1-3.39,3.39"/><path id="path1570" class="cls-1" d="M13.77,48.91a2.36,2.36,0,1,1,2.36-2.36,2.36,2.36,0,0,1-2.36,2.36h0"/><path id="path1586" class="cls-1" d="M48.83,65.21a2,2,0,0,1-2-2A2.06,2.06,0,0,1,47,62.4a3.15,3.15,0,0,0,.61.06,2.89,2.89,0,0,0,1.75-.55,2.4,2.4,0,0,0,1.41.48,2.16,2.16,0,0,1,.17.83,2,2,0,0,1-.3,1.06,2.42,2.42,0,0,0-1.81,1"/><path id="path1602" class="cls-1" d="M17.84,40.27a2.68,2.68,0,0,1-.05-5.36h.05a2.67,2.67,0,1,1,.07,5.34h-.07"/><path id="path1606" class="cls-1" d="M49.14,70.44A3.1,3.1,0,0,0,46,69.27a1.84,1.84,0,0,1-.06-.47,2,2,0,0,1,1.94-2,1.87,1.87,0,0,1,.53,0A2.39,2.39,0,0,0,50,68.91a2,2,0,0,1-.83,1.55"/><path id="path1614" class="cls-1" d="M38,58.41c-.39.64-.78.56-1.34.56a1.13,1.13,0,0,1-1-.92A2,2,0,0,1,35,56.59a2.09,2.09,0,0,1,.37-1.18,3.37,3.37,0,0,0,3.08-.29l.06.06c0,.14.72.1.72.26a2.66,2.66,0,0,1-.22,1.62,2,2,0,0,1-1,1.35"/><path id="path1630" class="cls-1" d="M38.81,74.91a2,2,0,1,1,2-2,2,2,0,0,1-2,2"/><path id="path1634" class="cls-1" d="M60.21,75.81a2.39,2.39,0,1,1,2.4-2.39,2.39,2.39,0,0,1-2.4,2.39h0"/><path id="path1638" class="cls-1" d="M50.76,69a2.19,2.19,0,0,1-.76-.11v-.09a2,2,0,0,0-1.6-2v-.18a2.4,2.4,0,0,1,.46-1.41s.51-1,.53-1c.74,0,.9-.33,1.28,0h.12a2.38,2.38,0,0,1,2.38,2.38h0a1.31,1.31,0,0,1,0,.28,2.1,2.1,0,0,0-.58,1.31,2.4,2.4,0,0,1-1.79.8"/><path id="path1650" class="cls-1" d="M67.94,62.39a2.39,2.39,0,0,0-3.08-1,3.48,3.48,0,0,1-1-2.4,3.51,3.51,0,0,1,1.28-2.71c0-.44.31-.87.46-.82.57-.21,1.52-.77,2.14.06v.34a3.86,3.86,0,0,0,3,3.15,3.47,3.47,0,0,1-2.94,3.42"/><path id="path1670" class="cls-1" d="M59.05,69.57a4.07,4.07,0,0,1-4-3.26A3.65,3.65,0,0,1,55,65.5a4,4,0,0,1,.22-1.32h.17a3.68,3.68,0,0,0,3.56-2.75H59a4.35,4.35,0,0,1,1.47.27,1.91,1.91,0,0,0,1.26.78,4.06,4.06,0,0,1,1.34,3v.37a3,3,0,0,0-.34,1.3,3.07,3.07,0,0,1-.39.68c-.48,1.88-1.67,2.24-2.88,1.7h-.44"/><path id="path1694" class="cls-1" d="M22.31,58.91h-.1a2.41,2.41,0,0,1-.38,0,2.42,2.42,0,0,0-2.18-2.1,2.42,2.42,0,0,1-.06-.66,2.71,2.71,0,0,1,2.71-2.62h.1a2.71,2.71,0,0,1-.09,5.38"/><path id="path1702" class="cls-1" d="M37.28,13.68a2.72,2.72,0,0,1,.25-5.42h.4v.27A1.51,1.51,0,0,0,39.44,10,1.39,1.39,0,0,0,40,9.91a2.73,2.73,0,0,1-.93,3.24,1.84,1.84,0,0,0-.47-.06,1.92,1.92,0,0,0-1.36.56"/><path id="path1722" class="cls-1" d="M72.36,70.59a1.52,1.52,0,0,1-.42-.06c-.58,0-1.19,0-1.19-.25,0-.75-.91-1.9.36-2.17a1.47,1.47,0,0,0,.24-.56,1.69,1.69,0,1,1,2.13,2.62,1.67,1.67,0,0,1-1.13.38"/><path id="path1726" class="cls-1" d="M70.14,69.21a1.58,1.58,0,0,0-1.07-.3c-.47,0-.66-.45-.7-1a.41.41,0,0,1-.05-.09,3,3,0,0,0,.08-.67,2.82,2.82,0,0,0-.09-.71,1.62,1.62,0,0,1,1.47-.93H70a.64.64,0,0,1,1,.57,1.66,1.66,0,0,1,.37,1,1.09,1.09,0,0,1,0,.36.83.83,0,0,1,0,.78"/><path id="path1762" class="cls-1" d="M36.85,69.51a3.1,3.1,0,0,1-.56-6.15,2.3,2.3,0,0,1,.45,0,1.92,1.92,0,0,0-.23.91,1.94,1.94,0,0,0,3.25,1.43.69.69,0,0,0,.13.11v.09a3.1,3.1,0,0,1-2.48,3.61,2.71,2.71,0,0,1-.57,0"/><path id="path1778" class="cls-1" d="M7.78,43.63a1.3,1.3,0,0,1-1.27-1.36,1.32,1.32,0,0,1,1-1.25,1,1,0,0,1,.25,0A1.32,1.32,0,0,1,8,43.61H7.75"/><path id="path1782" class="cls-1" d="M13.61,33.57a1.08,1.08,0,0,1-1.06-.88,1.1,1.1,0,0,1,.86-1.26h.19a1.08,1.08,0,0,1,1.06.89,1.07,1.07,0,0,1-.83,1.25h-.22"/><path id="path1786" class="cls-1" d="M69.64,72.33a2.16,2.16,0,0,1-.66-.1,1.12,1.12,0,0,0-1-.68h-.06A2.34,2.34,0,0,1,67.3,70a2.57,2.57,0,0,1,.06-.55A2.76,2.76,0,0,0,68.29,68l.09-.06a1.6,1.6,0,0,0,2.17.64l.18-.12a2.67,2.67,0,0,0,0,.4A1.68,1.68,0,0,0,72,70.52a2.36,2.36,0,0,1-2.3,1.8"/><path id="path1814" class="cls-1" d="M79.27,18.1c-1.21,0-3-.62-2.83-1.83,0-.83,1.16-1.29,2.16-1.6a2.79,2.79,0,0,1,1.46,2.48.89.89,0,0,1-.36.79c-.09,0-.82.17-.92.17"/><path id="path1222" class="cls-1" d="M78.59,15.12a6,6,0,0,1-1.34,0c-.4,0-.58.1-.93-.06a.89.89,0,0,1-.4-.61c0-1.47,2.14-2.85,2.78-2.64,1,.37.66,1.41.66,2s-.17,1.27-.77,1.29"/><path id="path1818" class="cls-1" d="M76.29,16.28a2.63,2.63,0,0,1-1-.17c-.24-.8,0-1.9,1-1.39a1.09,1.09,0,0,1,.4,1.5l0,0h-.36"/><path id="path1822" class="cls-1" d="M76.65,16.26a3,3,0,0,1-.33-1.17,2.35,2.35,0,0,1,1.1-.27,2.4,2.4,0,0,1,1.17.3,2.84,2.84,0,0,1-1.94,1.14"/><path id="path1830" class="cls-1" d="M71.34,19.17c-.54,0-.48-1-.48-1a1.58,1.58,0,0,1,1.62-1.52h0c.31,0,1.51.14,1.64.58.42.8-1.05,1.91-2,1.91"/><path id="path1834" class="cls-1" d="M76.25,19.29c-.6.14-1.53-1.2-1.15-1.54.54-.14,1.5.91,1.15,1.54"/><path id="path1842" class="cls-1" d="M68.2,20.64l-.1-.09a.82.82,0,0,1,1.26-.63c.11.41-.59,1-1.16.72"/><path id="path1846" class="cls-1" d="M71.21,22.81a2.62,2.62,0,0,1-1.48-2.31.62.62,0,0,1,.33-.51,1.73,1.73,0,0,1,2,1.41h0c0,.35-.31,1.32-.83,1.4"/><path id="path1850" class="cls-1" d="M64.62,23.27a1.94,1.94,0,0,1-.42-3.83,3.47,3.47,0,0,0,1.46,1.14A2,2,0,0,0,65,22.06a1.92,1.92,0,0,0,.33,1.09,2,2,0,0,1-.68.12"/><path id="path1858" class="cls-1" d="M69.58,26a1.92,1.92,0,0,1-1.93-1.91v0a1.22,1.22,0,0,1,0-.27,1.9,1.9,0,0,0,.65-.47,2,2,0,0,0,1.21.42,1.91,1.91,0,0,0,1.61-.88,1.81,1.81,0,0,1,.39,1.16A1.92,1.92,0,0,1,69.58,26h0"/><path id="path1862" class="cls-1" d="M69,23.91c-.46,0-.6-.25-.7-.58a1.86,1.86,0,0,0,.49-1,1.1,1.1,0,0,1,.85-.47,2.17,2.17,0,0,1,1.48,1.05c0,.56-.79,1.05-1.45,1.05"/><path id="path878" class="cls-1" d="M63.31,3.85h-.05a3.31,3.31,0,0,0-.81-.31,1.2,1.2,0,0,1-.26-.29,2.16,2.16,0,0,0,0-.36A2.5,2.5,0,0,0,62,2a1.36,1.36,0,1,1,1.26,1.85"/><path id="path850" class="cls-1" d="M62.85,10.12a1.78,1.78,0,0,0-1.67-1.21,1.75,1.75,0,0,0-1.49.85A3.46,3.46,0,0,1,58.74,5a2.41,2.41,0,0,0,1.08.25A2.38,2.38,0,0,0,62.14,3.5l.31.06a1.33,1.33,0,0,0,.81.31,4.17,4.17,0,0,1,.56.37,1.76,1.76,0,0,0-.44,2.44,1.74,1.74,0,0,0,1.44.75h.24a3.24,3.24,0,0,1-.22.81,1.72,1.72,0,0,0-.27.52,3.35,3.35,0,0,1-1.7,1.4"/><path id="path1194" class="cls-1" d="M54.11,7h0a2,2,0,0,0-2-2,2,2,0,0,0-1.47.63,3.59,3.59,0,1,1,3.51,1.46"/><path id="path1486" class="cls-1" d="M52,19.44a1.62,1.62,0,0,1-1.63-1.61h0a1.64,1.64,0,0,1,1-1.48A3.71,3.71,0,0,0,53.12,19a1.61,1.61,0,0,1-1.12.45"/><path id="path894" class="cls-1" d="M61,21.43a1.1,1.1,0,0,1-1.1-1.1,1,1,0,0,1,0-.24,1.92,1.92,0,0,0,1.31-.83A1.1,1.1,0,0,1,62,20.58a1.09,1.09,0,0,1-1,.85"/><path id="path954" class="cls-1" d="M64.47,14.91A2.39,2.39,0,0,1,65,10.43a1.72,1.72,0,0,0,1.17.47,1.58,1.58,0,0,0,.61-.12,2.41,2.41,0,0,1,1.07,2,2.29,2.29,0,0,1-.3,1.14,5,5,0,0,0-.55,0,3.53,3.53,0,0,0-2.53,1"/><path id="path1278" class="cls-1" d="M70.24,8.49a1.61,1.61,0,0,0-2.09-.9,1.65,1.65,0,0,0-.58.39,2.35,2.35,0,1,1,3.93-.89,1.36,1.36,0,0,0-.14.33,2.42,2.42,0,0,1-1.12,1.07"/><path id="path1234" class="cls-1" d="M73.1,9.77a3,3,0,0,0-1.33-.48A1.91,1.91,0,0,1,71.27,8a2,2,0,0,1,.09-.58c0-.11.1-.22.14-.33a1.93,1.93,0,0,1,3.62.67,2.4,2.4,0,0,0-2,2"/><path id="path1202" class="cls-1" d="M71.49,15a2.87,2.87,0,0,1-2.88-2.86v0A2.84,2.84,0,0,1,69,10.68a1.6,1.6,0,0,0,1.27-1.14,3,3,0,0,1,1.2-.26h.28a1.89,1.89,0,0,0,1.31.64v.19a2.36,2.36,0,0,0,.78,1.8,2.93,2.93,0,0,0-.32,2.31,2.75,2.75,0,0,1-1.18.71h-.11a2.07,2.07,0,0,0-.7.13h0"/><path id="path1210" class="cls-1" d="M73.85,11.91c-.69.13-1.06-1-1.06-1.68,0-.07.29-.21.29-.27h.23c.9,0,1.45.5.94,1.44a3.2,3.2,0,0,0-.4.51"/><path id="path950" class="cls-1" d="M74.26,11.37a3,3,0,0,0-1-1.44,2,2,0,0,0,1.81-2.17h.34a2.4,2.4,0,0,1,2.4,2.39,2.35,2.35,0,0,1-.14.79,2.83,2.83,0,0,0-3.43.46"/><path id="path1190" class="cls-1" d="M79.71,17.91a2.53,2.53,0,0,0,.11-.73,2.42,2.42,0,0,0-1.22-2.09,2.9,2.9,0,0,0,.1-3.28,2.82,2.82,0,0,1,.71-.09,3.1,3.1,0,0,1,.3,6.19"/><path id="path1810" class="cls-1" d="M77.42,19.6a2.3,2.3,0,0,1-1.17-.31,3.15,3.15,0,0,0-1.15-1.54,2,2,0,0,1,.17-1.64,2.63,2.63,0,0,0,1,.17h.36a3.06,3.06,0,0,0,2.78,1.63h.3a2.41,2.41,0,0,1-2.29,1.66"/><path id="path802" class="cls-1" d="M70.86,18.21a1.71,1.71,0,0,1-.38-.54v-.31a3.4,3.4,0,0,0-.14-1A2,2,0,0,1,71.52,15a2.45,2.45,0,0,0,.81-.13,2,2,0,0,1,1.83,1.94,1.55,1.55,0,0,1,0,.43,3.35,3.35,0,0,0-.89-.12,3.2,3.2,0,0,0-2.37,1.06"/><path id="path1826" class="cls-1" d="M73.23,23.53a3.11,3.11,0,0,1-2-.72,1.94,1.94,0,0,0-.73-2.64,1.57,1.57,0,0,0-.42-.18,3.13,3.13,0,0,1,.8-1.78,1.93,1.93,0,0,0,2.74,0,1.91,1.91,0,0,0,.52-.94,3.08,3.08,0,0,1,1,.48,2.4,2.4,0,0,0,1.15,1.54,3.13,3.13,0,0,1,.18,1.05,3.19,3.19,0,0,1-3.19,3.19h0"/><path id="path1838" class="cls-1" d="M71.12,22.91a1.93,1.93,0,0,0-1.54-.77,2.07,2.07,0,0,0-.77.15,1.22,1.22,0,0,0,0-.27,1.92,1.92,0,0,0-.63-1.42,3.19,3.19,0,0,0,1.18-.69h.17a1.88,1.88,0,0,1,.53.07v.35a3.18,3.18,0,0,0,1.17,2.47l-.09.14"/><path id="path1398" class="cls-1" d="M61.18,70.91a1.73,1.73,0,0,1-1.69-1.32,4,4,0,0,0,2.88-1.7,1.74,1.74,0,0,1-1.18,3h0"/><path id="path1714" class="cls-1" d="M71.65,66.24a2.72,2.72,0,0,1-.63-.08,1.64,1.64,0,0,0-1-.57,2.49,2.49,0,1,1,3.92-2.92,3.29,3.29,0,0,0-1.32,2.63,3.55,3.55,0,0,0,.08.73,2.27,2.27,0,0,1-1,.21"/></g></g></g></g></g></svg>