<svg xmlns="http://www.w3.org/2000/svg" viewBox="0 0 203 202.99"><defs><style>.cls-1{fill:#fff;}.cls-2{fill:#1c1c1c;}</style></defs><title>Ресурс 1</title><g id="Слой_2" data-name="Слой 2"><g id="Layer_1" data-name="Layer 1"><polygon class="cls-1" points="203 202.99 0 202.99 0 0 203 0 203 202.99 203 202.99"/><path class="cls-2" d="M51.92,106c0,9.59,2.56,10.66,13.48,11.06v3.51H22V117c9-.4,11.59-1.47,11.59-11.06V43.38c0-9.59-2.56-10.66-11.32-11.06V28.81H98.84L99.38,49H95.61c-3.24-10.24-6.75-13.48-24.68-13.48H57c-4.17,0-5.12.94-5.12,4.72v29h6.85c14.29,0,17.39-2.58,19.14-12.15h3.51V89.48H77.91C76,78.7,70.63,76,58.77,76H51.92ZM185.56,28.85H105.2l-1.87,20.23h4.61c2.94-9.9,7.27-13.49,16.94-13.49h11.33V106c0,9.59-2.56,10.66-12.94,11.06v3.51H167.5V117c-10.39-.4-12.95-1.47-12.95-11.06V35.55h11.32c9.68,0,14,3.59,16.95,13.49h4.6Z"/></g></g></svg>