<svg xmlns="http://www.w3.org/2000/svg" viewBox="0 0 383.37 330.11"><defs><style>.cls-1{fill:#fff;}</style></defs><title>Ресурс 1</title><g id="Слой_2" data-name="Слой 2"><g id="Layer_1" data-name="Layer 1"><path class="cls-1" d="M383.37,91c0-55.24-40-79.72-90.31-87.66C274.87.33,258.34,0,240.14,0,164.07,0,46.64,13.23,8.93,91.28,3.31,102.54,0,118.41,0,131.64,0,151.82,3,170,11.58,189.2c14.55,32.41,40.68,50.94,76.4,50.94,9.93,0,18.86-1,24.48-3,5.62-2.32,11.25-6.62,11.25-14.55,0-4-3-8.27-7.28-9.92-4.63-1.65-8.6-2-20.83-2.65s-16.55-1-25.14-1.65C56.89,207.06,50,198.13,50,189.53c0-7.62,5.29-14.23,15.21-18.86A34.11,34.11,0,0,1,42.79,139c0-20.57,16-36.47,41.93-36.47a66.62,66.62,0,0,1,17.81,3,54.53,54.53,0,0,0,14.9,2.32c6.28,0,13.56-.34,19.51-2v13.24c-3.31-.67-13.89-1.33-19.51-1.33a34.07,34.07,0,0,1,8.26,22.17c0,18.51-14.55,34.06-40.35,34.06a59.57,59.57,0,0,1-7.4-.42,16.19,16.19,0,0,0-7,3.24,10.22,10.22,0,0,0-4.1,7.77c0,4.31,2.31,7.61,12.89,8.27l22.82,1.32c22.17,1.32,34.08,10.26,33.75,26.13-.66,18.2-15.22,31.43-50.28,31.43a119.27,119.27,0,0,1-32.41-5,70.82,70.82,0,0,1-22.16-11.57c29.76,50.93,82.68,94.93,143.88,94.93,29.77,0,55.24-10.58,79.06-28.11C311.26,259.65,383.37,164.71,383.37,91ZM107.5,140.17c0-14.88-8.52-26.72-24.4-26.72-13.89,0-22.24,9.23-22.24,22.81,0,15.22,8.85,27.14,25.06,27.14C100.14,163.4,107.5,153.73,107.5,140.17Zm223.6,63.25c-5,3.64-12.23,5.62-20.17,5.62-10.25,0-18.85-5.62-29.44-18.18-16.87-20.19-30.43-36.39-30.43-36.39v26.47c0,18.52,1,21.49,2.64,25.79H229.23c2-5.29,3-7.27,3-25.79V89.31c0-14.89-1-21.5-4-25.47l22.83-6v88.65l30.1-28.12a97.32,97.32,0,0,0,11.24-12.23h26.14c-1.32.33-6,1.32-22.5,16.86l-28.12,26.47s16.88,19.84,32.76,37.37c12.23,13.24,21.5,17.2,27.12,17.2A11.38,11.38,0,0,0,331.1,203.42ZM217.32,180.6c0,22.15-22.16,29.77-40.68,29.77a83.52,83.52,0,0,1-32.42-6.61V188.54c10.92,6,24.47,9.59,33.07,9.59,9.27,0,20.85-2.32,20.85-13.23S186.56,168.68,174,162.73c-13.88-6.61-28.77-13.87-28.77-30.76,0-20.5,19.84-29.43,37.71-29.43a56.43,56.43,0,0,1,27.45,6.94v14.89a44.54,44.54,0,0,0-27.78-9.92c-9.93,0-19.52,4-19.52,12.9,0,10.59,12.57,16.54,25.8,23.14C202.77,157.44,217.32,165.38,217.32,180.6Z"/></g></g></svg>