<svg xmlns="http://www.w3.org/2000/svg" viewBox="0 0 905.38 651.95"><defs><style>.cls-1{fill:#fff;fill-rule:evenodd;}</style></defs><title>Ресурс 1</title><g id="Слой_2" data-name="Слой 2"><g id="Слой_1-2" data-name="Слой 1"><path class="cls-1" d="M132.93,484.89h24.81s6.62-1.65,6.62,5V536.2s1.64,6.63-5,8.28H131.28s-6.61,0-6.61-6.62V491.54S123,486.54,132.93,484.89ZM134.59,513h8.28V498.12h-8.28Zm16.56,1.64h8.27V498.1h-8.27Zm0,21.5h6.61V521.26h-6.61Zm-16.54,0h8.28v-16.5h-8.28ZM12.15,602.33s-5-24.81,23.15-24.81c0,0,3.31-14.88,18.2-14.88l-1.65,5s-13.24,9.92-11.58,19.86c0,0-18.19-5-24.81,14.87Z"/><path class="cls-1" d="M30.38,602.33s0-19.84,23.16-9.92v1.65S37,592.41,33.69,602.33ZM7.23,604s112.49-1.66,398.65-1.66c0,0,3.31,6.62,0,6.62l-402,1.64S.56,607.3,7.19,604Zm79.39,18.19c125.71,0,243.17-1.65,360.61,0,1.65,0,3.31,3.3,3.31,3.3-110.83,1.65-221.66,5-330.82,1.65-49.64-1.65-127.38,5-119.11-5h86Zm464.82,0c46.3,0,92.62,0,140.59,1.66,1.68,0,0,3.3,0,3.3-74.42,1.66-132.33,1.66-200.15,0,0,0-5-5,0-5,19.87,1.66,39.7,0,59.56,0Zm254.74,3.32c14.89,0,29.76,0,46.3,1.64,1.67,0,8.29-1.64,9.94,5,6.61-5,24.79-5,36.4-6.61,4.94-1.65,1.65,6.61-3.32,9.92-3.32,0-5-3.31-6.61-3.31-18.19,0-36.41,1.65-54.59,0-36.41-3.31-61.21,3.31-110.83-5-3.32-5,11.58-3.3,14.89-3.3,21.49,0,46.32,1.66,67.82,1.66ZM104.81,648.65c-5,0-11.58,1.64-18.19,0C75,645.34,83.31,642,85,642c9.93,0,215-1.64,327.53,1.65h92.65c84.38-1.65,167.08-3.31,251.44,1.66,39.7,3.31,79.39,3.31,119.09,3.31,1.67,0,3.32,3.3,1.67,3.3Z"/><path class="cls-1" d="M55.15,604l1.66-110.82H46.88s-3.31-3.31,1.64-6.63l71.13-92.63a48.08,48.08,0,0,0,5-6.62V354.21s1.66-5,3.31-5h6.63s3.31-1.64,3.31-3.3V334.36s18.19-14.89,34.73,6.62v8.27L174.28,384s0,6.61,3.3,9.92c1.66,1.64,64.52,92.63,64.52,92.63H230.51l-61.2-89.32s-3.31-1.67-1.65-9.94V364.13s0-5-5-5H137.87s-6.61-1.65-6.61,8.28v18.24s0,11.58-5,16.55c-5,3.31-61.2,81-61.2,81L63.41,604ZM159.4,349.25l1.65-3.3-3.31-5h-8.27c-1.65,0-8.28,5-3.31,6.63l3.31,3.3Z"/><path class="cls-1" d="M172.63,349.25l14.89,5a7.27,7.27,0,0,1,1.65,5V372.5s0,3.3,5,5c3.3,1.65,33.07,3.31,33.07,3.31l95.91,110.7s0,5-3.31,6.61-84.36,0-84.36,0-5-1.65-5,3.31c1.64,3.3-3.31,97.59,0,100.9h-9.91s3.3-66.17,1.64-110.82c0,0,1.65-5,8.28-5h72.79s3.3-1.65,0-3.31-74.44-89.32-74.44-89.32-1.66-3.31-6.61-5c-3.31,0-33.09-3.3-33.09-3.3s-6.61,0-8.27-6.62V367.45s0-6.62-8.28-5v-13.2Z"/><path class="cls-1" d="M235.5,602.33l1.64-86s1.65-6.62,6.62,0L242.11,604l-6.61-1.66ZM248.73,604l1.64-87.67s1.65-5,6.62,0V604Zm23.16-1.66h-6.61l1.64-86s3.31-3.31,5,0v86Zm8.26,0v-86s5-5,6.62,0V599a5.13,5.13,0,0,0,1.64,3.31Zm23.17,0h-9.94s1.66-1.65,1.66-6.61l1.65-79.4s1.65-5,5,0l1.68,86Zm18.19,0H309.93l1.66-5V522.9s0-3.31-1.66-3.31-5-13.23-3.31-8.27c0,0,1.66-14.88-3.3-13.24l13.22-1.65-1.64,14.89a7.25,7.25,0,0,0,5,6.63v77.74s-1.66,5,1.64,6.61Zm11.57,0h-6.61l1.66-86s3.3-5,5,0c3.32,3.3,0,86,0,86Zm16.55,0h-8.27l1.64-86s5-5,6.63,0c0,0-1.66,84.35,0,87.67v-1.66ZM295,432v-36.4s-1.66-4.95,1.65-4.95h16.53s6.62,0,5,4.95v38.1s1.66,3.31-3.31,3.31H298.38s-5,0-3.3-5Zm16.55-24.81-1.66-1.65s-3.31,1.65-5,1.65c-1.65-1.65-1.65,0-1.65,0v18.19s5,1.66,6.61,0a1.61,1.61,0,0,0,1.66-1.56v-.08Zm134,8.27s1.66-6.61,8.27-3.31c5,3.31,38.06,19.85,38.06,19.85s3.29,1.66,3.29,3.31c1.67,1.64,0,21.5,0,21.5a3.24,3.24,0,0,1-3.17,3.31h-.12c-1.65,0-38.06-3.31-38.06-3.31s-6.61,0-6.61-5l-1.66-36.39Zm9.92,29.78a1.62,1.62,0,0,0,1.58,1.66h.07l28.13,6.61c3.29,0,3.29-4.95,3.29-4.95s-1.64-6.61-1.64-8.27l-1.65-1.65L458.8,425.35c-3.3-1.65-3.3,1.66-3.3,1.66v18.18Z"/><path class="cls-1" d="M458.8,446.85v-9.93s-1.65-3.31,3.3-5h6.63v5s-8.27-3.31-6.63,11.58Zm11.58-16.55v18.2h5v-5s1.64-3.31,3.29,0v5l5,1.64v-9.92s-3.3-5-8.26-3.3v-3.27l-5-3.31Zm-46.32-38V332.72s0-6.62,5-6.62h38s5,0,5,6.62v62.85s0,5-5,5h-38s-6.61-1.66-5-8.28Zm11.59-41.36h8.27c3.31,0,3.31-1.65,3.31-1.65v-6.64a1.63,1.63,0,0,0-1.6-1.66h-8.32Zm1.66,21.52h6.61c3.31-1.66,3.31-3.31,3.31-3.31v-8.28a5.13,5.13,0,0,0-3.31-1.64h-6.61Zm0,19.84h6.61l1.65-1.65v-8.27a1.61,1.61,0,0,0-1.57-1.65h-6.69c-1.65-1.66-1.65,1.65-1.65,1.65Zm18.18-43c1.65,3.31,6.61,1.65,5,1.65h3.3c0-1.65,1.65-6.61,0-9.93-1.64-1.65-3.3,0-6.61,0-1.65-1.65-1.65,1.66-1.65,1.66a8,8,0,0,0,0,6.57Zm0,21.51h8.27c1.65-3.31,0-11.59,0-11.59h-6.61a1.62,1.62,0,0,0-1.65,1.59v10Zm0,21.5h5c3.3,0,3.3-1.65,3.3-3.31v-6.61a1.62,1.62,0,0,0-1.47-1.74h-6.79v11.57ZM473.7,493.22s-5,13.22-5,18.18v66.17s-1.67,8.28,8.26,6.62h34.76l1.65,8.27s0-1.65-8.29,0H410.8s-6.62,0-8.27,3.31c-1.66,8.27,1.65-14.89,1.65-14.89a123.16,123.16,0,0,0,13.24,3.31h31.43s1.64,0,1.64-9.93v-61.2s-1.64-19.84,18.21-31.44c21.51-13.23,41.35-1.65,43,5V498.2s-14.89-24.81-38-5Zm-16.55,21.43v53a22.51,22.51,0,0,1,0,11.58s1.65,1.65,5,0c3.3-3.31,1.64-11.58,1.64-11.58v-56.3c0-3.31,1.65-13.24,1.65-13.24C457.15,494.81,457.15,514.65,457.15,514.65Z"/><path class="cls-1" d="M488.58,513h9.93s3.32-1.66,3.32,1.65v6.61s-1.67,3.31-3.32,3.31h-9.93a3.24,3.24,0,0,1-3.3-3.18v-6.75A5.77,5.77,0,0,1,488.58,513Zm48-59.55c6.62,3.31,8.26,6.62,8.26,6.62h5s6.64,0,8.29,5a20.52,20.52,0,0,0,3.29,4.95s0,3.31-1.65,5c-3.29,1.65,0,120.76,0,120.76s-1.64,3.31,1.65,5c8.29,3.31,183.63,1.65,183.63,1.65v8.21H516.75s-6.61-1.65-4.94-5v-134a16.15,16.15,0,0,0-1.67-6.61c-1.65-3.31-5-3.31,0-6.62l8.29,1.65a24.06,24.06,0,0,0,8.26-5c3.32-6.61,1.65,0,0-6.61,0-5-3.3-3.31-1.65-19.85,0,0-16.53-6.61-3.32-9.93h19.86s13.23,1.65,1.65,8.27-5-5-3.3,1.65c0,3.3-1.67,13.23-3.32,21.5,0,0-1.65,3.32,0,3.32Zm8.26,119.09h-6.61c-11.58,1.66-6.62-9.92-6.62-9.92h11.54c3.32,0,3.32-1.66,3.32-1.66V542.79c-1.68-5-5-5-5-5h-6.62c-5,0-3.32-8.27-3.32-8.27h11.62c3.32,0,1.64-1.66,1.64-1.66V503c1.68-1.64-1.64-1.64-1.64-1.64h-9.94c-5-6.62,0-9.92,0-9.92h9.94a5.87,5.87,0,0,0,3.32-5V473.25c-1.68-3.31-3.32-3.31-3.32-3.31H521.64c-3.29,0-1.65,6.62-1.65,6.62s-1.64,114.13-1.64,119.1,5,5,5,5h21.48V572.55ZM404.24,604l-48-1.66,1.64-129s0-5-3.3-5c-1.65,0-11.59-13.24,3.3-11.58l6.62,1.66s1.64-6.62,6.61-6.62c0,0,1.65-3.3-1.65-6.62,0,0-1.66-14.89-1.66-16.54,1.66,0-5-3.31-6.61-5-1.66,0-3.31-6.61,1.65-6.61,5-1.65,24.81,0,24.81,0s11.58,3.31-1.65,9.93a3.24,3.24,0,0,0-3.31,3.17v.13c1.65,3.31,0,14.89-1.64,14.89-1.66,1.66-1.66,3.3,0,5,3.3,1.66,5,5,5,6.62,1.65,3.31,9.93,1.66,9.93,1.66h3.3a33.63,33.63,0,0,0,8.26,8.27s3.31,3.31-1.64,6.62h-1.66s-1.65,0,0,1.65V604ZM391,602.33V577.52c0-6.61,0-3.31-8.28-5-6.61,0-5-1.64-5-1.64v-6.62s11.58,1.65,13.23,0a5.75,5.75,0,0,1,1.65-3.31s-1.65-14.89,0-18.18c0-5-5-5-11.59-5s-3.3-6.61-3.3-6.61,11.58,0,13.23-1.65c1.64,0,1.64-3.31,1.64-3.31L391,499.73l-11.59-1.66v-6.61h9.94c3.31,0,3.31-6.62,3.31-6.62V471.65s-19.85,0-21.51-1.66c-3.31,0-3.31,5-3.31,5l-1.64,127.35H391Zm-57.9-382.1h29.78a3.24,3.24,0,0,1,3.31,3.17v48.14a1.62,1.62,0,0,1-1.58,1.66h-34.8s-1.65,0-1.65-3.31V223.54s1.65-3.31,4.94-3.31Zm3.32,23.15s6.62,1.66,8.28,0a5.13,5.13,0,0,0,1.64-3.31v-6.61a5.83,5.83,0,0,0-1.64-3.31l-8.28,1.66Zm16.54,0h6.61l1.66-8.27-3.3-3.31h-5v11.58Zm-14.89,19.86h8.27v-6.59l-3.3-3.3h-5v9.92Zm13.24-9.94,1.65,9.92,5,1.66,1.65-3.3V253.3Zm84.36-29.76s-1.66-3.31,5-3.31h29.78s6.61-1.66,8.26,6.61v36.4a12.45,12.45,0,0,1-4.94,5h-33.1s-6.61,0-5-6.61V223.54Zm9.92,29.76c3.31,9.92,9.93,1.65,9.93,1.65v-21.5c-8.27-6.62-9.93,0-9.93,0V253.3ZM460.49,255c5,8.28,9.92,0,9.92,0v-21.5c-6.62-6.62-9.92,0-9.92,0ZM227.22,382.34l41.35-49.62,1.66-5L273.54,202s1.66-1.66-1.65-3.3h11.58a5.74,5.74,0,0,0-1.66,3.3c0,1.65-1.65,124.06-1.65,124.06s1.65,8.27-1.64,11.58L237.15,384s-3.31,6.61-1.65,9.92S227.22,382.34,227.22,382.34Z"/><path class="cls-1" d="M255.34,198.73s-11.58,0-3.31-11.59c0,0,152.18-107.52,153.84-107.52,3.3,0,48-38.05,52.93-41.34,5-1.66,5-5,8.26-8.28V6.84s0-8.28,3.32-6.62H482V26.65s1.65,8.28,6.62,11.59c5,1.64,89.32,92.63,92.64,92.63,1.65,0,3.32,6.61,6.61,0l1.68-9.92s0-9.94,4.94-8.28h9.93s-1.64-6.61,5-6.61c0,0,0-3.31,5-3.31v-5a3.24,3.24,0,0,1,3.17-3.31h16.6a3.24,3.24,0,0,1,3.3,3.18v30s0,1.66,1.67,5l4.94,6.61,1.68,46.32s0,6.61,3.29,8.27l31.44,29.78s6.61,8.27-1.65,9.92h-6.61s-3.32,0-3.32,5,3.32,150.52,3.32,150.52h-9.94L659,223.66,649,217s-5-3.3-5,1.65v39.7s-1.65,1.65,1.67,3.31c3.3,3.3,8.26,1.64,8.26,5,0,5,0,6.62-5,6.62-5,1.64-13.23-5-11.58-8.28l-1.65-122.41s0-6.61-1.65-6.61l-3.32-5V97.81H619.17s3.32,5,1.65,5c0,0,5,1.66,3.32,5l1.64,95.94s0,5-5,1.65c0,0-5-8.26-29.77-8.26l-335.8,1.66Zm334.15-9.94c11.59,1.66,1.65-8.27,1.65-8.27C577.9,165.64,478.64,49.85,478.64,49.85c-4.94-6.62-11.58,3.3-11.58,3.3-1.65,3.31-190.23,129-190.23,129-9.92,8.27,1.66,6.61,1.66,6.61C362.86,183.84,589.49,188.79,589.49,188.79Zm8.27-23.15c0,6.61,1.64,3.31,1.64,5,0,3.3,14.89,16.53,14.89,16.53,5,3.31,3.32-1.64,3.32-1.64v-53c0-3.31-5-8.28-5-8.28s-3.32,1.65-9.93,0c-6.61,0-5,5-5,5v36.36Z"/><path class="cls-1" d="M612.64,198.73s-5,0-5,3.3l5,264.66c-1.67,23.17,6.62,21.51,6.62,21.51h129v13.23H615.94c-9.94,3.3-9.94-6.62-9.94-6.62,1.68-9.92-6.61-266.32-4.94-271.27,0-6.62-3.32-6.62-3.32-6.62h-5c-6.61,0-5,6.62-5,6.62L589.41,513c-5,9.92-9.93,0-9.93,0,1.64-1.66,0-301.06,0-301.06-1.68-6.61,5-4.95,5-4.95h9.91c6.64,0,6.64-11.58,6.64-11.58l11.58,3.31Z"/><path class="cls-1" d="M556.41,195.42h9.91v24.81h5s5,0,5,6.61c-1.65,6.62,0,287.83,0,287.83S573,518,578,518l1.67,77.74s-1.67,6.61,3.3,8.27H568.07s5-6.63,5-11.58V521.28s-5-3.29-5-8.26V233.47s-1.67-6.61-5-3.31c0,0-5-1.64-5-6.61,0,0,1.63-26.47-1.66-28.13Zm301,416.85s-99.25,0-114.15-1.66l-1.65-124.06H615.94l-5-11.58a12.29,12.29,0,0,0,5-5s44.65-81,46.33-81h71.12s1.65,0,3.3-3.3V367.45s0-5,3.32-5c5,1.66,39.7,0,39.7,0S794.6,360.8,794.6,374V403.8s1.64,18.2,3.29,18.2c3.32,0,41.36,74.43,41.36,74.43s8.26,5-1.67,6.61h-8.26V605.65s0,1.65,3.32,3.31h23.15s6.61,0,0,3.3h1.62ZM730.05,486.54c6.61,1.66,8.28-3.31,8.28-3.31-1.67-3.31,24.8-46.31,24.8-46.31,1.65-1.65,3.32-6.62,3.32-6.62V377.37c0-5-5-5-5-5s-8.28,1.64-13.24,0c-3.29,0-3.29,5-3.29,5v41.35l-1.68,6.61c-13.15,11.59-18.09-1.68-18.09-1.68-1.65-3.31,5-3.31,5-3.31,5,0,6.61-3.31,6.61-3.31l-1.64-16.53a1.63,1.63,0,0,0-1.59-1.65H670.59c-6.61,0-6.61,3.31-6.61,3.31l-44.66,79.38c-5,8.28,0,6.63,0,6.63l110.82-1.67Zm84.35,119.1c5-1.65,5-3.31,5-3.31V493.17c9.93,1.64,3.32-8.28,3.32-8.28-1.65,0-29.79-57.88-29.79-57.88-5-1.66-5-11.59-5-11.59l-1.61-34.77c-1.64-9.93-9.93-6.61-9.93-6.61V427a41.2,41.2,0,0,1-5,11.58l-19.83,41.35c-1.65,0-1.65,5-1.65,5V597.39c-1.67,6.63,8.26,6.63,8.26,6.63,21.51-3.33,56.24,1.63,56.24,1.63Z"/><path class="cls-1" d="M844.23,561s9.94,6.62,8.26,14.89c0,0,8.29,1.65,9.94,13.25,0,0,0,5-5,1.64,0,0-6.61-8.27-16.53-3.3,0,0-8.27,3.3-3.32-3.31l6.64-5s1.64-13.24-13.25-14.89c0,0,0-8.28,13.23-3.32Zm-5,39.7s11.58-16.53,19.83,0L865.7,599s5-6.62,11.58-1.66c0,0,8.26,8.27,9.91,14.89l-4.94,5s-6.64-6.61-9.94-13.23c0,0-9.93-1.66-11.58,1.65l-3.32-5H839.23ZM890.49,599s11.59-3.3,14.89,11.59c0,0-6.56,0-14.85-11.59Zm-306,3.31s3.29-1.65,3.29-6.61V521.27s3.32-4.95,6.61,0v74.45s-1.64,5,1.68,8.27c0,0,6.61-5,5-8.27l1.64-74.45s3.3-8.26,8.26,0l-1.64,76.09s0,3.31,1.64,5c0,0,6.64-1.65,6.64-6.61l-1.67-74.45s5-8.26,8.29-1.65v79.4a5.88,5.88,0,0,0,3.32,5c3.29,1.65,4.94-3.31,4.94-3.31V519.65s3.32-8.27,8.29,0v77.74s-1.65,3.31,5,6.63V521.31s5-9.92,9.91-1.64V604H659s3.32-3.31,1.64-6.63L664,519.67s3.32-8.28,6.62,1.64c0,0-1.65,77.76,0,77.76,0,0,0,3.3,6.61,5l1.68-82.71s1.64-9.92,8.26-1.65v81.06l3.32,3.31s3.32-1.66,3.32-5V524.65s1.64-14.89,9.91-5v77.74s0,6.63,3.32,6.63c1.64,0,3.29-5,3.29-5l1.67-79.4s3.3-5,6.62,0v82.71l8.26,1.66,1.67-82.71s1.65-8.26,6.62,1.65v74.43s0,5,3.32,6.63L584.55,602.3Z"/></g></g></svg>