<svg xmlns="http://www.w3.org/2000/svg" viewBox="0 0 200.78 66.66"><defs><style>.cls-1{fill:#fafafa;}</style></defs><title>Ресурс 1</title><g id="Слой_2" data-name="Слой 2"><g id="Layer_1" data-name="Layer 1"><path class="cls-1" d="M200.65,15.87C197.92.19,150.82-4.7,95.45,4.94,72.19,9,51.19,15,34.84,21.69c2.51.06,4.37.63,5.5,1.76a4.9,4.9,0,0,1,1.34,3.62v1.55H36.25V27.25a1.73,1.73,0,0,0-1.91-1.85,1.68,1.68,0,0,0-1.85,1.37,2.67,2.67,0,0,0,0,1.08c.58,2.38,8.64,3.85,9.52,8.23a10.53,10.53,0,0,1,0,3.5c-.5,3.54-3.61,4.9-7.56,4.9-5.52,0-7.76-2.61-7.76-6.22v-1.7h5.82v2.12a1.83,1.83,0,0,0,2,1.86,1.79,1.79,0,0,0,2-1.38,2.72,2.72,0,0,0,0-1.52C35.5,34.93,28,33.67,27,29.3A7.47,7.47,0,0,1,27,26.43a5.7,5.7,0,0,1,.48-1.51C9.33,33.4-1.28,42.73.12,50.79,2.86,66.47,50,71.36,105.33,61.71c24.34-4.23,46.23-10.58,62.88-17.68-.24,0-.47,0-.72,0-3.79,0-7.18-1.42-7.53-5.29-.06-.71-.07-1-.07-1.4V28.46a12.51,12.51,0,0,1,.09-1.4c.44-3.75,3.4-5.29,7.51-5.29,3.17,0,7.07.91,7.49,5.29a12.2,12.2,0,0,1,.05,1.33h0v.84h-5.48V28h0a5.35,5.35,0,0,0-.07-.79,1.85,1.85,0,0,0-2-1.49,1.89,1.89,0,0,0-2,1.49,5.14,5.14,0,0,0-.08,1v9.68a3.46,3.46,0,0,0,.05.79,2.21,2.21,0,0,0,4.18,0,5.58,5.58,0,0,0,0-.79v-3h-2.16V31.62h7.63v5.75c0,.39,0,.68-.07,1.4a5.27,5.27,0,0,1-.92,2.61C191.75,33,202,23.81,200.65,15.87ZM57.07,43.65,54.29,24.78h-.1L51.34,43.65H45.48l3.94-21.31H59l3.92,21.31Zm28.16,0L85.1,25.14H85L81.56,43.65h-5.5L72.64,25.14h-.1l-.13,18.51H67l.47-21.31H76.2l2.55,15.83h.12l2.56-15.83h8.75l.47,21.31Zm25.64-4.13c-.59,4.13-4.63,4.85-7.49,4.85-4.75,0-7.68-2-7.68-6.16V36.53h5.75v2.1a1.81,1.81,0,0,0,2,1.83,1.77,1.77,0,0,0,2-1.35,2.78,2.78,0,0,0,0-1.51c-1.06-2.66-8.53-4-9.44-8.26a7.13,7.13,0,0,1,0-2.84c.63-3.9,4.37-4.71,7.38-4.71,2.7,0,4.66.58,5.84,1.76a4.89,4.89,0,0,1,1.32,3.58v1.54h-5.38V27.31a1.71,1.71,0,0,0-1.88-1.83,1.66,1.66,0,0,0-1.85,1.35,2.46,2.46,0,0,0,0,1.08c.58,2.36,8.57,3.8,9.44,8.15A10.17,10.17,0,0,1,110.87,39.52Zm19.92-1.93c0,.4,0,1.19-.06,1.4-.32,3.51-2.84,5.3-7.44,5.3s-7.14-1.79-7.47-5.3c0-.21-.06-1,0-1.4V22.33h5.5V38.07a3.37,3.37,0,0,0,0,.79,2,2,0,0,0,3.93,0,4.27,4.27,0,0,0,0-.8V22.33h5.49Zm23.7,5.85h-7.65L141.7,26.55h-.09l.29,16.89h-5.34V22.34h8l4.75,16.22h.11l-.28-16.22h5.37Z"/></g></g></svg>