<svg id="Слой_1" data-name="Слой 1" xmlns="http://www.w3.org/2000/svg" xmlns:xlink="http://www.w3.org/1999/xlink" viewBox="0 0 47.16 64"><defs><style>.cls-1{fill:none;}.cls-2{clip-path:url(#clip-path);}.cls-3{fill:#fff;}</style><clipPath id="clip-path" transform="translate(-8.42 0)"><polygon class="cls-1" points="8.42 84.46 7.26 0 629.06 0 630.22 84.46 8.42 84.46"/></clipPath></defs><title>nytimes</title><g class="cls-2"><path class="cls-3" d="M26.71,46.88V24.11l-7.48,3a21,21,0,0,0-1.5,9.48c.17,4.49,2.83,9.64,4.82,12ZM46.83,0a13.21,13.21,0,0,1,6.48,2.66,8.23,8.23,0,0,1,2,8c-.67,2.49-1.5,3.82-4.16,5.65a10.76,10.76,0,0,1-4.66,2v11l5.16,4-5.16,4.66v15a32.23,32.23,0,0,0,7.65-10.31s.17-.33.5-1.16c.33,1.83.17,5.65-2,10.31a18.83,18.83,0,0,1-8.31,9c-6.48,3.5-11.47,3.83-16.62,2.83A22.86,22.86,0,0,1,12.24,53.2a25.2,25.2,0,0,1-3.82-14c.17-10.15,8-18.79,17-22.12a13.23,13.23,0,0,1,3-.83c-.66.5-1.49,1-2.49,1.67-2.83,1.82-5.32,5.48-6.49,8.31l17.29-7.48V42.23l-13.8,6.82a18.82,18.82,0,0,0,10.65,5.81A20.22,20.22,0,0,0,45.16,53V37.74L40,33.25l5.15-4v-11A74,74,0,0,1,36,16.13c-3.16-.67-13.47-3.49-15.13-3.83-1.66-.16-3.66-.16-4.82.83a4.79,4.79,0,0,0-1.5,4.66,4.72,4.72,0,0,0,1.5,2,3.35,3.35,0,0,1-1.66-.66A7.47,7.47,0,0,1,10.75,13a10.29,10.29,0,0,1,4.32-9,13.26,13.26,0,0,1,9.15-2.16c5.15.66,12,3.49,18.12,5,2.32.5,4.15.66,5.82-.17a2.68,2.68,0,0,0,1-3.82C47.82.67,45.33.67,43.17.33A16.43,16.43,0,0,1,46.83,0" transform="translate(-8.42 0)"/></g></svg>