<svg xmlns="http://www.w3.org/2000/svg" viewBox="0 0 567.59 167.18"><defs><style>.cls-1{fill:#fff;}.cls-2{fill:#dca424;}</style></defs><title>Ресурс 3</title><g id="Слой_2" data-name="Слой 2"><g id="Слой_1-2" data-name="Слой 1"><g id="text-logo-path"><path class="cls-1" d="M180.21,55.7,162.15.85H172l13.31,42,13.42-42h9.06L189.65,55.7V86.35h-9.44ZM249.8,86.35H214.62V.85H249.8v8.7H224.16V38.7H245v8.59H224.16V77.7H249.8Zm7.39-20.51h0v-4.9h9v5.38q0,12.21,10,12.21t10-12.21h0a16.5,16.5,0,0,0-1.58-7.15,21.81,21.81,0,0,0-4.09-5.91,63,63,0,0,0-5.58-5q-3.07-2.49-6.1-5.13a51.6,51.6,0,0,1-5.56-5.61,24.32,24.32,0,0,1-4.08-7.09,25.29,25.29,0,0,1-1.57-9h0q0-10.13,4.73-15.74T276.51,0h0q9.5,0,14.26,5.67t4.76,15.68h0v2.32h-9V20.88q0-12.24-9.79-12.23T267,20.76h0A16.91,16.91,0,0,0,268.55,28a20.94,20.94,0,0,0,4.12,5.93,70.14,70.14,0,0,0,5.61,5q3.08,2.46,6.13,5.12A54,54,0,0,1,290,49.71a23.87,23.87,0,0,1,4.12,7.09,25.21,25.21,0,0,1,1.57,9h0q0,9.94-4.88,15.64t-14.44,5.69q-9.54,0-14.36-5.65T257.19,65.84Zm59.1-56.29H300.54V.85h40.91v8.7h-15.8v76.8h-9.36Zm66.77,76.8H347.89V.85h35.17v8.7H357.42V38.7H378.3v8.59H357.42V77.7h25.64Zm42.7,0H391.83V.85h9.55V77.7h24.38Zm41.15,0H433V.85h9.54V77.7h24.4Zm13.53,0h-8.76L488,.85h13.85l16.33,85.5H508.7l-3.34-17.24H483.77Zm13.95-74.71L485,60.94h19.09Zm40.79,74.71h-9.54V.85h19q9.9,0,14.5,4.92t4.59,14.64h0v7q0,14.23-10.62,17.59h0a13.16,13.16,0,0,1,8.19,6.16q2.55,4.51,2.54,11.66h0v13.3q0,7.11,1.74,10.26h-9.67q-1.6-3.7-1.6-10.38h0V62.55q0-7-3.11-9.82t-9.36-2.88h-6.67Zm0-76.8v31.6h7c4,0,7.09-.85,9.1-2.53s3-4.74,3-9.15h0V21.23q0-5.91-2.36-8.78c-1.57-1.93-4.08-2.9-7.55-2.9h-9.23Z"/></g><g id="tagline-9f7a7d0c-12ba-4628-8516-6a3c6e5e0548-logo-path"><path class="cls-2" d="M48.77,103.33,0,.85H6.75L52.14,96.23,97.53.85h6.73L55.5,103.33V155.4H48.77ZM53.92,85,13.49.85h6.73L57.28,77.66Zm6.63-14.75L27,.85H33.7L64,62.91Zm6.84-14.64L40.44.85h6.73L70.76,48.26ZM69,155.4H62.25V103.33L111,.85h6.73L69,103.33Zm13.47,0H75.72V103.33L124.48.85h6.73L82.45,103.33Zm13.48,0H89.2V103.33L138,.85h6.73L95.93,103.33Z"/></g><g id="tagline-07357ac0-47e4-4a89-a60a-a39e353ab7b5-logo-path"><path class="cls-2" d="M167.42,148.77h0q0-4.91,4.41-18.14h0q.85-2.56,5.16-2.56h1.93c-.1.42-.57,1.87-1.39,4.35h0q-3.08,9.21-3.08,14h0a6.35,6.35,0,0,0,.83,3.53,2.86,2.86,0,0,0,2.56,1.24,6.18,6.18,0,0,0,3.9-2h0v-.45a25.73,25.73,0,0,1,1.14-7.13h0q2.24-7.62,5.24-7.63h0c1.11,0,1.66.7,1.66,2.09a22.71,22.71,0,0,1-1.17,6,36.53,36.53,0,0,0-1.18,4.35h0a6.26,6.26,0,0,0,.85,3.53,2.59,2.59,0,0,0,2.25,1.24c.91,0,1.91-.66,3-2a9.08,9.08,0,0,0,1.91-4.45h0c.08-.43.18-1.42.31-3s.27-3.07.46-4.62a46.27,46.27,0,0,1,.81-4.75h0q1.15-5.44,4.11-5.44h0c.47,0,.87.72,1.18,2.15a18.33,18.33,0,0,1,.48,4h0c0,2.31-.77,5.36-2.29,9.16h0l-.79,1.89c.33.79.76,1.18,1.28,1.18a3.92,3.92,0,0,0,2.15-1.16q1.37-1.17,4.29-4.18h0v3.72c-.49.45-1.13,1.05-1.91,1.8s-1.37,1.32-1.81,1.71h0a4.6,4.6,0,0,1-2.85,1.54q-1.25,0-2.49-1.8h0a16.58,16.58,0,0,1-4.21,6,9,9,0,0,1-6.15,2.4h0a6.18,6.18,0,0,1-3.44-.94,5.94,5.94,0,0,1-2.19-2.54h0a12.36,12.36,0,0,1-8.72,3.48h0a5.72,5.72,0,0,1-4.53-1.91A6.89,6.89,0,0,1,167.42,148.77ZM204.27,146h0a21.71,21.71,0,0,1,2-9.12,18.29,18.29,0,0,1,5.73-7.13,13.65,13.65,0,0,1,8.34-2.8h0q7.71,0,7.72,5.77h0a8.5,8.5,0,0,1-3,6.48,9.76,9.76,0,0,1-6.77,2.76h0a6.66,6.66,0,0,1-3.13-.87,7.62,7.62,0,0,1-2.78-2.65h0a13.16,13.16,0,0,0-1.42,5.75h0q0,7.56,5.5,7.56h0A6.92,6.92,0,0,0,220,150.4a26.13,26.13,0,0,0,3.74-2.89q1.62-1.51,4.1-4c1.65-1.67,2.8-2.79,3.43-3.35h0v3.58a64,64,0,0,1-9.28,8.71,13.42,13.42,0,0,1-7.78,3h0q-7.38,0-9.22-4.8h0A13.4,13.4,0,0,1,204.27,146Zm9-10.05h0q2.49,3.21,5.5,3.21h0a4,4,0,0,0,3.29-1.87,6.48,6.48,0,0,0,1.38-3.92,3.7,3.7,0,0,0-.77-2.75,3.15,3.15,0,0,0-2.23-.71,5.67,5.67,0,0,0-2.7.65,7.45,7.45,0,0,0-2.14,1.63h0A11.22,11.22,0,0,0,213.29,136Zm17.55,18.38a7.28,7.28,0,0,1-1.16-4.29,48.64,48.64,0,0,1,.3-5.38,53.63,53.63,0,0,1,1.16-6.42c.58-2.48,1-4.38,1.34-5.69s1-3.75,2-7.27,1.71-6,2.1-7.39a25.08,25.08,0,0,1,2-4.76,31.71,31.71,0,0,1,3.35-5,18.11,18.11,0,0,1,4.43-3.88,9.51,9.51,0,0,1,4.95-1.51h0q5,0,5,4.29h0q0,8.33-16.35,23.44h0c-.17.69-.5,2-1,3.88s-.86,3.39-1.13,4.53h0a34.87,34.87,0,0,0-1.2,7.84h0c0,3.49,1.28,5.24,3.82,5.24h0a8.22,8.22,0,0,0,4.83-1.89,16,16,0,0,0,4.19-4.65,10.2,10.2,0,0,0,1.68-5.24h0q0-5.35-8.37-5.36h0a7.79,7.79,0,0,1,2.91-3.78,7.45,7.45,0,0,1,4.32-2h0a6.47,6.47,0,0,1,5.2,2,8.34,8.34,0,0,1,1.69,5.51,24,24,0,0,1-1.1,7.09,11.36,11.36,0,0,1-3.65,5.66h0a31.42,31.42,0,0,0,6.23-5c2.54-2.53,4.05-4,4.51-4.44h0l-.08,3.73a59,59,0,0,1-6.05,5.51c-1.23.88-2.36,1.66-3.39,2.33A20.35,20.35,0,0,1,250.7,153c-.83.38-1.82.81-3,1.28a23.51,23.51,0,0,1-3.41,1.08h0a29.15,29.15,0,0,1-6.83.93,14.59,14.59,0,0,1-4.49-.51,4.35,4.35,0,0,1-2.15-1.46Zm10.34-30.11h0a25.59,25.59,0,0,0,6.84-7.31q3.47-5.16,3.46-8.24h0a1.93,1.93,0,0,0-2.18-2.18h0q-1.05,0-3.05,3.94a63.45,63.45,0,0,0-3.55,8.25A23.15,23.15,0,0,0,241.18,124.25ZM272.58,153a13.69,13.69,0,0,1-.79-5,18.24,18.24,0,0,1,1.6-6.82,28.65,28.65,0,0,1,4.09-7,23.68,23.68,0,0,1,5.68-5.16,10.85,10.85,0,0,1,5.63-2,16.65,16.65,0,0,1,4.78.69h0l4.34-15.52q.93-3.77,1.81-4.39h0a4.68,4.68,0,0,1,2.46-1c.84-.05,1.74-.07,2.7-.07H306a33.28,33.28,0,0,1-1.14,4.55h0q-2,6-5.61,19.08t-3.57,15.54h0a4.06,4.06,0,0,0,.22,1.64.92.92,0,0,0,.87.43c.43,0,1.31-.64,2.65-1.91s3.31-3.25,5.89-6h0v3.64c-.3.32-.86.89-1.67,1.72s-1.42,1.44-1.81,1.83h0L300.11,149c-.74.77-1.34,1.34-1.79,1.74s-1,.88-1.65,1.47a17,17,0,0,1-1.64,1.36c-.43.32-.9.64-1.4,1h0a4.64,4.64,0,0,1-2.36.9h0q-2.68,0-2.68-4.35h0a18,18,0,0,1,.57-4.37h0a33.88,33.88,0,0,1-7.11,6.42c-2.37,1.54-4.15,2.3-5.34,2.3a4.66,4.66,0,0,1-2.73-.67,3.9,3.9,0,0,1-1.4-1.77Zm6.1-7.82h0c0,2.77.9,4.16,2.68,4.16h0c1.41,0,3.15-.8,5.24-2.38s3.25-2.81,3.47-3.71h0l2.87-12.66c-.09-.3-.47-.59-1.16-.87a5.38,5.38,0,0,0-1.91-.39h0a7.81,7.81,0,0,0-5.45,2.58,18.59,18.59,0,0,0-4.2,6.26A18.31,18.31,0,0,0,278.68,145.14Zm23.52.89h0a21.56,21.56,0,0,1,2-9.12,18.16,18.16,0,0,1,5.75-7.13,13.61,13.61,0,0,1,8.31-2.8h0q7.72,0,7.72,5.77h0a8.49,8.49,0,0,1-3,6.48,9.78,9.78,0,0,1-6.77,2.76h0a6.7,6.7,0,0,1-3.14-.87,7.6,7.6,0,0,1-2.77-2.65h0a13.27,13.27,0,0,0-1.4,5.75h0q0,7.56,5.47,7.56h0a6.94,6.94,0,0,0,3.57-1.38,27.69,27.69,0,0,0,3.72-2.89c1.08-1,2.44-2.35,4.1-4s2.8-2.79,3.45-3.35h0v3.58a63.53,63.53,0,0,1-9.3,8.71,13.37,13.37,0,0,1-7.78,3h0q-7.39,0-9.22-4.8h0A13.4,13.4,0,0,1,302.2,146Zm9-10.05h0q2.49,3.21,5.5,3.21h0a4.05,4.05,0,0,0,3.29-1.87,6.48,6.48,0,0,0,1.38-3.92,3.7,3.7,0,0,0-.77-2.75,3.11,3.11,0,0,0-2.21-.71,5.78,5.78,0,0,0-2.72.65,7.45,7.45,0,0,0-2.14,1.63h0A11.56,11.56,0,0,0,311.22,136Zm15.8.73h0a48.89,48.89,0,0,1,.43-7h0c.13-1.08,1.84-1.61,5.12-1.61h2.62a56.55,56.55,0,0,0-1,10.38,31.63,31.63,0,0,0,1,8.58c.69,2.41,1.44,3.61,2.27,3.61h0q1,0,3.62-4.49h0c.82-1.36,1.22-2.05,1.22-2.09h0l0-1.69a38.11,38.11,0,0,1,.32-4.32,46.68,46.68,0,0,1,.92-5.2,13.21,13.21,0,0,1,1.74-4.21,3,3,0,0,1,2.46-1.66h0c1.12,0,1.67,1.07,1.67,3.19a32.28,32.28,0,0,1-1.38,8.2c-.91,3.33-1.68,5.77-2.28,7.32h0a5.76,5.76,0,0,1,.65,1.8h0a3.32,3.32,0,0,0,2.05-1.15c.81-.76,1.46-1.38,1.93-1.87l2.13-2.18,2.38-2.41h0v3.67q-5.33,5.5-6.68,6.26a4.82,4.82,0,0,1-2.07.75h0c-.72,0-1.55-1-2.5-3h0q-2.67,4.69-4.07,5.84h0a8.1,8.1,0,0,1-3.35,1.72,17.1,17.1,0,0,1-2.94.27h0c-1.32,0-2.48-.9-3.46-2.71h0Q327,147.53,327,136.71ZM351.54,146h0a21.56,21.56,0,0,1,2-9.12,18.43,18.43,0,0,1,5.75-7.13,13.61,13.61,0,0,1,8.31-2.8h0q7.73,0,7.72,5.77h0a8.49,8.49,0,0,1-3,6.48,9.72,9.72,0,0,1-6.76,2.76h0a6.7,6.7,0,0,1-3.15-.87,7.6,7.6,0,0,1-2.77-2.65h0a13.27,13.27,0,0,0-1.4,5.75h0q0,7.56,5.49,7.56h0a7,7,0,0,0,3.55-1.38,27.69,27.69,0,0,0,3.72-2.89c1.08-1,2.44-2.35,4.1-4s2.81-2.79,3.44-3.35h0v3.58a63,63,0,0,1-9.29,8.71,13.37,13.37,0,0,1-7.78,3h0q-7.4,0-9.22-4.8h0A13.4,13.4,0,0,1,351.54,146Zm9-10.05h0q2.49,3.21,5.5,3.21h0a4.05,4.05,0,0,0,3.29-1.87,6.43,6.43,0,0,0,1.39-3.92,3.7,3.7,0,0,0-.76-2.75,3.16,3.16,0,0,0-2.23-.71,5.78,5.78,0,0,0-2.72.65,7.45,7.45,0,0,0-2.14,1.63h0A11.56,11.56,0,0,0,360.56,136Zm16.94,13h0v-1.28a63,63,0,0,1,1.75-14,85.6,85.6,0,0,1,4.49-14.12,43,43,0,0,1,6.38-10.86c2.45-2.91,4.82-4.37,7.13-4.37h0a4.14,4.14,0,0,1,3.35,1.46,6.5,6.5,0,0,1,1.22,4.31,27,27,0,0,1-.86,6.4,35.67,35.67,0,0,1-2.23,6.5,59.81,59.81,0,0,1-3.05,5.77,42.66,42.66,0,0,1-3.33,4.91h0a55.9,55.9,0,0,1-5.3,6.08h0l-.84.85a24.15,24.15,0,0,0-1.93,7.55c0,1.62.38,2.44,1.14,2.44h0q.82,0,4.47-3.61t6.71-6.95h0v3.64a71.65,71.65,0,0,1-9.31,8.77,13.28,13.28,0,0,1-6.84,2.91h0a1.81,1.81,0,0,1-1.57-.59,8.55,8.55,0,0,1-.65-1,3.38,3.38,0,0,1-.36-1.1c-.09-.46-.16-.86-.21-1.19a11.15,11.15,0,0,1-.12-1.32C377.51,149.67,377.5,149.25,377.5,149Zm9.79-14.71h0a34.58,34.58,0,0,0,4.61-6.07,46.07,46.07,0,0,0,3.46-6.87h0q2.79-7,2.78-10.1c0-2-.47-3.08-1.42-3.08h0q-2.28,0-4.45,6.37A178.25,178.25,0,0,0,387.29,134.25Zm6.36,9.85h0q0-8,5.65-12.53t15-4.59h0c.44,0,.67.15.71.44h0a1.53,1.53,0,0,1-.71,1.39h0q-6.5,0-9.94,3.75h0a12.34,12.34,0,0,0-1.27,14.93,5.8,5.8,0,0,0,4.77,2.62c1.88,0,3.68-1,5.42-2.94h0a10.41,10.41,0,0,1-3.76-4.06,10.7,10.7,0,0,1-1.34-5.12,5.76,5.76,0,0,1,1.57-4.21,6.06,6.06,0,0,1,4.55-1.62,5.36,5.36,0,0,1,4.33,1.6,5.81,5.81,0,0,1,1.36,3.92h0a12.87,12.87,0,0,1-3.05,8.47h0a4,4,0,0,0,1.42.33,3.1,3.1,0,0,0,1.22-.27,6.48,6.48,0,0,0,1.46-1q.81-.71,1.44-1.32c.42-.42,1-1,1.79-1.87s1.46-1.5,2-2h0v3.61a33.73,33.73,0,0,1-4.41,4.07,5.58,5.58,0,0,1-3.29,1.22,9.32,9.32,0,0,1-3-.45h0a20.38,20.38,0,0,1-6,5,14.26,14.26,0,0,1-7.13,2h0a7.75,7.75,0,0,1-7.56-5h0A15.12,15.12,0,0,1,393.65,144.1Zm17.88-5.63h0a7.6,7.6,0,0,0,.91,3.44,7.37,7.37,0,0,0,2.44,2.84h0a15.7,15.7,0,0,0,1.32-3,10.42,10.42,0,0,0,.67-3.44h0c0-2-.88-3-2.66-3S411.53,136.35,411.53,138.47Zm12.18,28.71h-5.89q1.23-4.55,2.66-11.64c.93-4.72,1.88-9.22,2.85-13.47a92.27,92.27,0,0,1,3.31-11.38h0a3.71,3.71,0,0,1,1.73-2.17,8.58,8.58,0,0,1,3.18-.45h2.2Q432,134,430.21,139.94h0a36.41,36.41,0,0,1,6-8.23h0a18.07,18.07,0,0,1,4.24-3.39A8.81,8.81,0,0,1,444.8,127h0q4.21,0,4.22,5h0q0,4.31-3,9.94t-6.46,7.8h0q3.38,0,8.83-4.8h0q2.61-2.25,6.06-5.79h0v3.76c-.52.5-1.27,1.23-2.22,2.18s-1.66,1.63-2.09,2l-1.85,1.74c-.8.77-1.41,1.32-1.81,1.63l-1.7,1.32a11.51,11.51,0,0,1-1.77,1.16l-1.73.85a8.43,8.43,0,0,1-1.92.71h0a17.6,17.6,0,0,1-3.72.49,2.52,2.52,0,0,1-1.93-.53,1.8,1.8,0,0,1-.43-1.16,3.55,3.55,0,0,1,.08-.89,2.3,2.3,0,0,1,.23-.53c.12-.2.23-.38.34-.53a5.16,5.16,0,0,1,.45-.59c.21-.27.37-.46.47-.58l.54-.63h0a27.58,27.58,0,0,0,4.43-7,17.59,17.59,0,0,0,1.91-6.85c0-1.77-.72-2.66-2.17-2.66h0q-3.68,0-6.79,6h0a76.78,76.78,0,0,0-5,12.7h0l-.88,2.8q-.51,2-3.13,12.66Zm31.35-12.72h-6.24a93.71,93.71,0,0,1,2.26-13.2q2-9,3.67-11.58h0a2.67,2.67,0,0,1,2-1.34,28.65,28.65,0,0,1,4.76-.27h0a65.07,65.07,0,0,1-1.89,6.63q-1.41,4.37-1.71,5.38h0q7.42-13,14.81-13h0a2,2,0,0,1,1.89,1.42,9.11,9.11,0,0,1,.63,3.66,32.92,32.92,0,0,1-1.73,7.94h0a36.2,36.2,0,0,1,6.24-8.61h0a18.51,18.51,0,0,1,4.26-3.23,9.06,9.06,0,0,1,4.37-1.26h0q3.66,0,3.66,5h0q0,4.64-2.54,12.17h0a11.38,11.38,0,0,0-.73,2.75c0,.45.11.67.32.67a1.48,1.48,0,0,0,.67-.17,5.82,5.82,0,0,0,.86-.59c.35-.28.68-.56,1-.85l1.26-1.22c.52-.51,1-1,1.42-1.36s1-1,1.63-1.62h0l1.74-1.73v3.64q-4.11,4.25-8.55,8c-3,2.5-5,3.74-6.05,3.74h0c-1.29,0-1.93-1-1.93-2.87h0a21.8,21.8,0,0,1,2.29-8.85,21.21,21.21,0,0,0,2.26-8.31h0a2.51,2.51,0,0,0-.61-1.63,2.33,2.33,0,0,0-1.89-.75c-.84,0-1.84.61-3,1.83a20.69,20.69,0,0,0-3.12,4.35c-.9,1.7-1.8,3.61-2.7,5.76h0a88.62,88.62,0,0,0-3.3,9.47h-6.29q0-4.28,2.68-13h0a33.76,33.76,0,0,0,1.62-6.36,2.34,2.34,0,0,0-.48-1.66,1.25,1.25,0,0,0-.9-.51,2.61,2.61,0,0,0-.85.14h0a11.25,11.25,0,0,0-4.21,3.84,32.4,32.4,0,0,0-3.57,6.38h0a77.52,77.52,0,0,0-4,11.19ZM494.59,146h0a21.43,21.43,0,0,1,2-9.12,18.29,18.29,0,0,1,5.73-7.13,13.61,13.61,0,0,1,8.31-2.8h0q7.73,0,7.73,5.77h0a8.5,8.5,0,0,1-3,6.48A9.7,9.7,0,0,1,508.6,142h0a6.7,6.7,0,0,1-3.15-.87,7.62,7.62,0,0,1-2.78-2.65h0a13.41,13.41,0,0,0-1.4,5.75h0q0,7.56,5.49,7.56h0a6.92,6.92,0,0,0,3.55-1.38,26.47,26.47,0,0,0,3.72-2.89q1.62-1.51,4.12-4c1.65-1.67,2.8-2.79,3.43-3.35h0v3.58a63.53,63.53,0,0,1-9.3,8.71,13.37,13.37,0,0,1-7.78,3h0q-7.38,0-9.22-4.8h0A13.4,13.4,0,0,1,494.59,146Zm9-10.05h0q2.5,3.21,5.5,3.21h0a4,4,0,0,0,3.29-1.87,6.45,6.45,0,0,0,1.4-3.92,3.7,3.7,0,0,0-.77-2.75,3.15,3.15,0,0,0-2.23-.71,5.78,5.78,0,0,0-2.72.65,7.45,7.45,0,0,0-2.14,1.63h0A11.56,11.56,0,0,0,503.61,136Zm19.44,18.48h-6.24q0-3.53,2-11.7a96.18,96.18,0,0,1,3.49-12.07h0a3.55,3.55,0,0,1,1.79-2.09,7.47,7.47,0,0,1,3.11-.53h2.21q-2.42,8.25-3.55,11.87h0a37.32,37.32,0,0,1,6.34-8.31h0a19.27,19.27,0,0,1,4.43-3.33,9.38,9.38,0,0,1,4.51-1.32h0q3.2,0,3.2,3.84h0q0,1.83-2.31,8.67a61.63,61.63,0,0,0-2.3,7.56c0,.48.13.71.41.71a2.1,2.1,0,0,0,1.08-.45,46.7,46.7,0,0,0,3.88-3.49c2.13-2,3.41-3.25,3.84-3.62h0v3.66a98.84,98.84,0,0,1-9.19,8.43c-2.67,2.08-4.45,3.11-5.34,3.11h0q-2.46,0-2.46-2.73a21.76,21.76,0,0,1,1.22-6.56c.82-2.55,1.65-4.85,2.46-6.9a14.84,14.84,0,0,0,1.22-4.13,2.6,2.6,0,0,0-.37-1.56,1.15,1.15,0,0,0-.91-.47h0q-1.84,0-4,2.6a29.08,29.08,0,0,0-3.86,6.28h0a68,68,0,0,0-4.63,12.53ZM546.16,150h0a31.35,31.35,0,0,1,.94-7c.62-2.7,1.14-4.89,1.58-6.6s.91-3.69,1.44-5.93h-.77l-.61,0a2.46,2.46,0,0,1-.46-.06,1.73,1.73,0,0,1-.37-.1.78.78,0,0,1-.33-.16,1.86,1.86,0,0,1-.28-.21h0a1.1,1.1,0,0,1-.22-.71,5.62,5.62,0,0,1,0-.57h0c.09-.23.49-.38,1.18-.46h0l2.76-.27c1-3.4,1.74-5.56,2.15-6.48s.82-1.77,1.2-2.5a9,9,0,0,1,1.1-1.74c.37-.42.79-.86,1.26-1.33a5.18,5.18,0,0,1,1.52-1.09h0a9.16,9.16,0,0,1,3.82-.85h0l.12.12c0,.1-.28,1-.85,2.56h0q-2.79,8-3.76,11.31h0l10-.45-.73,1.18c-.54,1-3.8,1.49-9.77,1.49h0s-.37,1.21-1,3.63h0q-2.92,10.83-2.93,13.12h0c0,1.55.18,2.43.53,2.66a1.89,1.89,0,0,0,1.06.35h0q1.78,0,12.47-10.14h0v3.7c-.75.67-1.77,1.61-3.07,2.84L561,149.12q-1.12,1-2.82,2.4a27.13,27.13,0,0,1-2.86,2.09h0a10.63,10.63,0,0,1-5.29,1.79h0Q546.16,155.4,546.16,150Z"/></g></g></g></svg>