<svg xmlns="http://www.w3.org/2000/svg" viewBox="0 0 740.43 134.97"><defs><style>.cls-1{fill:#fff;}.cls-2{fill:#dca424;}</style></defs><title>Ресурс 1</title><g id="Слой_2" data-name="Слой 2"><g id="Слой_1-2" data-name="Слой 1"><g id="text-logo-path"><path class="cls-1" d="M263,101.91h0V94.35h13.85v8.31q0,18.91,15.5,18.92t15.51-18.92h0a25.51,25.51,0,0,0-2.46-11.09,33.61,33.61,0,0,0-6.32-9.14,97.81,97.81,0,0,0-8.63-7.79q-4.74-3.83-9.45-7.94A79.7,79.7,0,0,1,272.43,58a37.13,37.13,0,0,1-6.33-11,38.77,38.77,0,0,1-2.46-14h0q0-15.69,7.35-24.38T292.91,0h0Q307.59,0,315,8.78t7.39,24.28h0v3.59H308.42V32.32q0-18.93-15.14-18.93T278.14,32.14h0a25.93,25.93,0,0,0,2.46,11.2,32.86,32.86,0,0,0,6.36,9.2,104.67,104.67,0,0,0,8.68,7.8q4.75,3.82,9.5,7.93A80.91,80.91,0,0,1,313.82,77a37,37,0,0,1,6.36,11,38.75,38.75,0,0,1,2.46,14h0q0,15.42-7.58,24.24T292.73,135q-14.78,0-22.25-8.78T263,101.91Zm91.48-87.14H330.11V1.3h63.33V14.77H369v118.9H354.49Zm103.38,118.9H403.4V1.3h54.47V14.77h-39.7V59.93h32.32V73.22H418.17v47.06h39.7Zm66.09,0H471.44V1.3h14.77v119H524Zm63.71,0H535.13V1.3H549.9v119h37.77Zm21,0H595.05L620.34,1.3h21.4l25.31,132.37H652.36L647.2,107H613.78ZM630.2,18,615.63,94.35h29.54Zm63.16,115.65H678.59V1.3H708q15.32,0,22.43,7.62t7.11,22.67h0V42.38q0,22-16.42,27.23h0q8.76,2.58,12.68,9.55t3.92,18h0v20.6q0,11,2.68,15.87H725.48q-2.51-5.73-2.5-16.06h0V96.85q0-10.81-4.79-15.24T703.7,77.18H693.36Zm0-118.9V63.71h10.89q9.4,0,14.08-3.92T723,45.61h0V32.87q0-9.13-3.65-13.61c-2.42-3-6.32-4.49-11.67-4.49h-14.3Z"/></g><g id="tagline-9f7a7d0c-12ba-4628-8516-6a3c6e5e0548-logo-path"><path class="cls-2" d="M42.6,89.31,0,.56H5.89L45.53,83.18,85.17.56h5.89L48.46,89.31v45.11H42.6Zm4.49-15.83L11.78.56h5.88L50,67.09Zm5.8-12.78L23.55.56h5.87L55.91,54.31Zm6-12.7L35.31.56H41.2L61.8,41.61Zm1.38,86.42H54.35V89.31L97,.56h5.87L60.24,89.31Zm11.78,0H66.13V89.31L108.7.56h5.89L72,89.31Zm11.75,0H77.9V89.31L120.48.56h5.89L83.77,89.31Zm58.94,0h-5.88V.56h5.88Zm11.78,0H148.6V.56h5.89Zm11.76,0h-5.89V.56h5.89Zm74.38,0h-68.5V.56h68.5V6.38H178V12.2h62.61V18H178v5.82h62.61v5.82H178V52.93h32.12v5.82H178v5.83h32.12V70.4H178v5.82h32.12v5.83H178v23.27h62.61v5.82H178V117h62.61v5.8H178v5.82h62.61Z"/></g></g></g></svg>